<?xml version="1.0" encoding="UTF-8" standalone="no"?>
<!-- Created with Inkscape (http://www.inkscape.org/) -->
<svg
   xmlns:dc="http://purl.org/dc/elements/1.1/"
   xmlns:cc="http://web.resource.org/cc/"
   xmlns:rdf="http://www.w3.org/1999/02/22-rdf-syntax-ns#"
   xmlns:svg="http://www.w3.org/2000/svg"
   xmlns="http://www.w3.org/2000/svg"
   xmlns:xlink="http://www.w3.org/1999/xlink"
   xmlns:sodipodi="http://sodipodi.sourceforge.net/DTD/sodipodi-0.dtd"
   xmlns:inkscape="http://www.inkscape.org/namespaces/inkscape"
   width="64px"
   height="64px"
   id="svg2160"
   sodipodi:version="0.32"
   inkscape:version="0.45.1"
   sodipodi:docbase="/home/developer/workspace/Themes/racer_theme"
   sodipodi:docname="flame.svg"
   inkscape:output_extension="org.inkscape.output.svg.inkscape"
   inkscape:export-filename="/home/developer/workspace/Themes/racer_theme/flame.png"
   inkscape:export-xdpi="90"
   inkscape:export-ydpi="90">
  <defs
     id="defs2162">
    <linearGradient
       id="linearGradient3141">
      <stop
         style="stop-color:#ff7900;stop-opacity:1;"
         offset="0"
         id="stop3143" />
      <stop
         style="stop-color:#fff300;stop-opacity:1;"
         offset="1"
         id="stop3145" />
    </linearGradient>
    <linearGradient
       inkscape:collect="always"
       xlink:href="#linearGradient3141"
       id="linearGradient3175"
       gradientUnits="userSpaceOnUse"
       x1="31.045631"
       y1="17.073631"
       x2="61.045455"
       y2="17.073631" />
    <linearGradient
       inkscape:collect="always"
       xlink:href="#linearGradient3141"
       id="linearGradient3191"
       gradientUnits="userSpaceOnUse"
       x1="31.045631"
       y1="17.073631"
       x2="61.045455"
       y2="17.073631" />
    <linearGradient
       inkscape:collect="always"
       xlink:href="#linearGradient3141"
       id="linearGradient3243"
       gradientUnits="userSpaceOnUse"
       x1="31.045631"
       y1="17.073631"
       x2="61.045455"
       y2="17.073631" />
    <linearGradient
       inkscape:collect="always"
       xlink:href="#linearGradient3141"
       id="linearGradient3245"
       gradientUnits="userSpaceOnUse"
       x1="31.045631"
       y1="17.073631"
       x2="61.045455"
       y2="17.073631" />
    <linearGradient
       inkscape:collect="always"
       xlink:href="#linearGradient3141"
       id="linearGradient3255"
       gradientUnits="userSpaceOnUse"
       x1="31.045631"
       y1="17.073631"
       x2="61.045455"
       y2="17.073631" />
    <linearGradient
       inkscape:collect="always"
       xlink:href="#linearGradient3141"
       id="linearGradient3257"
       gradientUnits="userSpaceOnUse"
       x1="31.045631"
       y1="17.073631"
       x2="61.045455"
       y2="17.073631" />
  </defs>
  <sodipodi:namedview
     id="base"
     pagecolor="#ffffff"
     bordercolor="#666666"
     borderopacity="1.0"
     inkscape:pageopacity="0.0"
     inkscape:pageshadow="2"
     inkscape:zoom="5.5"
     inkscape:cx="30.181818"
     inkscape:cy="32.276378"
     inkscape:current-layer="layer1"
     showgrid="true"
     inkscape:document-units="px"
     inkscape:grid-bbox="true"
     inkscape:window-width="872"
     inkscape:window-height="627"
     inkscape:window-x="967"
     inkscape:window-y="206" />
  <metadata
     id="metadata2165">
    <rdf:RDF>
      <cc:Work
         rdf:about="">
        <dc:format>image/svg+xml</dc:format>
        <dc:type
           rdf:resource="http://purl.org/dc/dcmitype/StillImage" />
      </cc:Work>
    </rdf:RDF>
  </metadata>
  <g
     id="layer1"
     inkscape:label="Layer 1"
     inkscape:groupmode="layer">
    <g
       id="g3171"
       transform="matrix(0.6967066,0,0,0.7264546,21.466077,-1.7204366)">
      <path
         sodipodi:nodetypes="csssssssssssssssssssssssssssssssc"
         id="path2168"
         d="M 33.454545,29 C 33.154016,28.632922 32.911808,28.235937 32.712826,27.81794 C 32.076568,26.481367 31.882267,24.929962 31.636364,23.454545 C 31.448738,22.328789 31.543704,20.912593 32,20 C 32.435973,19.128054 33.23228,18.712154 34.181818,18 C 35.195396,17.239817 36.344143,18.172071 37.090909,18.545455 C 38.089056,19.044528 38.517488,17.692296 38.727273,17.272727 C 39.258637,16.209999 39.454545,15.29374 39.454545,14 C 39.454545,12.853266 40.012064,11.631538 40.909091,11.272727 C 41.763629,10.930912 42.256645,9.8716775 43.090909,9.4545455 C 43.938896,9.0305522 44.979554,8.1935013 45.636364,7.8181818 C 46.378903,7.3938738 46.552526,6.9964644 47.454545,6.5454545 C 48.197255,6.1740997 48.537997,5.2801846 48.909091,4.9090909 C 49.755126,4.0630558 50.941162,4.3315656 51.818182,3.4545455 C 52.344782,2.9279455 55.061082,3.0049713 55.636364,2.9090909 C 57.497593,2.5988859 58.805266,3.7923503 59.454545,5.0909091 C 59.987398,6.1566142 60,6.9820577 60,8.3636364 C 60,9.3285619 60.545455,10.555992 60.545455,11.818182 C 60.545455,12.670359 59.299437,14.155108 58.909091,14.545455 C 58.018337,15.436209 57.057363,16.016773 56,16.545455 C 55.015269,17.03782 53.786534,16.879057 52.727273,17.090909 C 51.604163,17.315531 50.360825,17.303499 49.454545,17.454545 C 48.592385,17.598239 48.002252,17.953982 47.090909,18.181818 C 46.545798,18.318096 45.565977,19.31674 45.454545,19.818182 C 45.307282,20.480867 45,21.301639 45,22.363636 C 45,23.296647 46.152063,24.137902 45,25.454545 C 44.338523,26.21052 44.318486,26.647651 43.272727,26.909091 C 42.429274,27.119954 41.582571,27.122916 40.727273,26.909091 C 40.484848,26.848485 40.242424,26.787879 40,26.727273 C 39.251325,26.540104 38.307725,25.804204 37.636364,25.636364 C 36.764239,25.418332 36.312763,25.207255 35.454545,25.636364 C 34.923586,25.901844 35,27.140315 35,28 C 35,28.904244 33.211015,34.272727 33.454545,29 z "
         style="fill:url(#linearGradient3175);fill-opacity:1;fill-rule:evenodd;stroke:#000000;stroke-width:1px;stroke-linecap:butt;stroke-linejoin:miter;stroke-opacity:1" />
      <path
         id="path3151"
         d="M 33.454545,24 C 33.333333,23.69697 33.212121,23.393939 33.090909,23.090909 C 32.710237,22.13923 32.950151,21.399798 33.454545,20.727273 C 34.046705,19.937726 34.945337,19.626425 36,19.818182 C 36.794854,19.962701 37.475154,20.323334 38.363636,20.545455 C 39.600656,20.854709 40.301732,20.061125 40.909091,19.818182 C 41.56631,19.555294 41.454545,17.929921 41.454545,17.090909 C 41.454545,16.12772 41.68317,15.360932 42,14.727273 C 42.461345,13.804583 42.654019,13.055598 43.090909,12.181818 C 43.324997,11.713643 44.078242,11.376304 44.545455,10.909091 C 45.068328,10.386217 45.764167,9.9360984 46.727273,9.4545455 C 47.590688,9.022838 48.131222,8.5707524 48.909091,8.1818182 C 49.743925,7.7644013 50.544353,7.2732782 51.272727,6.9090909 C 52.049298,6.5208054 52.90248,6.2760325 53.454545,6"
         style="fill:none;fill-rule:evenodd;stroke:#fff6f6;stroke-width:2.79999995;stroke-linecap:butt;stroke-linejoin:miter;stroke-miterlimit:4;stroke-dasharray:none;stroke-opacity:0.71308019" />
    </g>
    <g
       id="g3185"
       transform="matrix(-0.672682,0,0,-0.6951031,43.393419,65.641631)">
      <path
         sodipodi:nodetypes="csssssssssssssssssssssssssssssssc"
         id="path3187"
         d="M 33.454545,29 C 33.154016,28.632922 32.911808,28.235937 32.712826,27.81794 C 32.076568,26.481367 31.882267,24.929962 31.636364,23.454545 C 31.448738,22.328789 31.543704,20.912593 32,20 C 32.435973,19.128054 33.23228,18.712154 34.181818,18 C 35.195396,17.239817 36.344143,18.172071 37.090909,18.545455 C 38.089056,19.044528 38.517488,17.692296 38.727273,17.272727 C 39.258637,16.209999 39.454545,15.29374 39.454545,14 C 39.454545,12.853266 40.012064,11.631538 40.909091,11.272727 C 41.763629,10.930912 42.256645,9.8716775 43.090909,9.4545455 C 43.938896,9.0305522 44.979554,8.1935013 45.636364,7.8181818 C 46.378903,7.3938738 46.552526,6.9964644 47.454545,6.5454545 C 48.197255,6.1740997 48.537997,5.2801846 48.909091,4.9090909 C 49.755126,4.0630558 50.941162,4.3315656 51.818182,3.4545455 C 52.344782,2.9279455 55.061082,3.0049713 55.636364,2.9090909 C 57.497593,2.5988859 58.805266,3.7923503 59.454545,5.0909091 C 59.987398,6.1566142 60,6.9820577 60,8.3636364 C 60,9.3285619 60.545455,10.555992 60.545455,11.818182 C 60.545455,12.670359 59.299437,14.155108 58.909091,14.545455 C 58.018337,15.436209 57.057363,16.016773 56,16.545455 C 55.015269,17.03782 53.786534,16.879057 52.727273,17.090909 C 51.604163,17.315531 50.360825,17.303499 49.454545,17.454545 C 48.592385,17.598239 48.002252,17.953982 47.090909,18.181818 C 46.545798,18.318096 45.565977,19.31674 45.454545,19.818182 C 45.307282,20.480867 45,21.301639 45,22.363636 C 45,23.296647 46.152063,24.137902 45,25.454545 C 44.338523,26.21052 44.318486,26.647651 43.272727,26.909091 C 42.429274,27.119954 41.582571,27.122916 40.727273,26.909091 C 40.484848,26.848485 40.242424,26.787879 40,26.727273 C 39.251325,26.540104 38.307725,25.804204 37.636364,25.636364 C 36.764239,25.418332 36.312763,25.207255 35.454545,25.636364 C 34.923586,25.901844 35,27.140315 35,28 C 35,28.904244 33.211015,34.272727 33.454545,29 z "
         style="fill:url(#linearGradient3191);fill-opacity:1;fill-rule:evenodd;stroke:#000000;stroke-width:1px;stroke-linecap:butt;stroke-linejoin:miter;stroke-opacity:1" />
      <path
         id="path3189"
         d="M 33.454545,24 C 33.333333,23.69697 33.212121,23.393939 33.090909,23.090909 C 32.710237,22.13923 32.950151,21.399798 33.454545,20.727273 C 34.046705,19.937726 34.945337,19.626425 36,19.818182 C 36.794854,19.962701 37.475154,20.323334 38.363636,20.545455 C 39.600656,20.854709 40.301732,20.061125 40.909091,19.818182 C 41.56631,19.555294 41.454545,17.929921 41.454545,17.090909 C 41.454545,16.12772 41.68317,15.360932 42,14.727273 C 42.461345,13.804583 42.654019,13.055598 43.090909,12.181818 C 43.324997,11.713643 44.078242,11.376304 44.545455,10.909091 C 45.068328,10.386217 45.764167,9.9360984 46.727273,9.4545455 C 47.590688,9.022838 48.131222,8.5707524 48.909091,8.1818182 C 49.743925,7.7644013 50.544353,7.2732782 51.272727,6.9090909 C 52.049298,6.5208054 52.90248,6.2760325 53.454545,6"
         style="fill:none;fill-rule:evenodd;stroke:#fff6f6;stroke-width:2.79999995;stroke-linecap:butt;stroke-linejoin:miter;stroke-miterlimit:4;stroke-dasharray:none;stroke-opacity:0.71308019" />
    </g>
    <g
       id="g3247"
       transform="matrix(0,1.0148891,-0.9910075,0,62.686901,1.1935583)">
      <g
         transform="matrix(0.7030286,0,0,0.715797,18.377886,-1.5005676)"
         id="g3231">
        <path
           style="fill:url(#linearGradient3255);fill-opacity:1;fill-rule:evenodd;stroke:#000000;stroke-width:1px;stroke-linecap:butt;stroke-linejoin:miter;stroke-opacity:1"
           d="M 33.454545,29 C 33.154016,28.632922 32.911808,28.235937 32.712826,27.81794 C 32.076568,26.481367 31.882267,24.929962 31.636364,23.454545 C 31.448738,22.328789 31.543704,20.912593 32,20 C 32.435973,19.128054 33.23228,18.712154 34.181818,18 C 35.195396,17.239817 36.344143,18.172071 37.090909,18.545455 C 38.089056,19.044528 38.517488,17.692296 38.727273,17.272727 C 39.258637,16.209999 39.454545,15.29374 39.454545,14 C 39.454545,12.853266 40.012064,11.631538 40.909091,11.272727 C 41.763629,10.930912 42.256645,9.8716775 43.090909,9.4545455 C 43.938896,9.0305522 44.979554,8.1935013 45.636364,7.8181818 C 46.378903,7.3938738 46.552526,6.9964644 47.454545,6.5454545 C 48.197255,6.1740997 48.537997,5.2801846 48.909091,4.9090909 C 49.755126,4.0630558 50.941162,4.3315656 51.818182,3.4545455 C 52.344782,2.9279455 55.061082,3.0049713 55.636364,2.9090909 C 57.497593,2.5988859 58.805266,3.7923503 59.454545,5.0909091 C 59.987398,6.1566142 60,6.9820577 60,8.3636364 C 60,9.3285619 60.545455,10.555992 60.545455,11.818182 C 60.545455,12.670359 59.299437,14.155108 58.909091,14.545455 C 58.018337,15.436209 57.057363,16.016773 56,16.545455 C 55.015269,17.03782 53.786534,16.879057 52.727273,17.090909 C 51.604163,17.315531 50.360825,17.303499 49.454545,17.454545 C 48.592385,17.598239 48.002252,17.953982 47.090909,18.181818 C 46.545798,18.318096 45.565977,19.31674 45.454545,19.818182 C 45.307282,20.480867 45,21.301639 45,22.363636 C 45,23.296647 46.152063,24.137902 45,25.454545 C 44.338523,26.21052 44.318486,26.647651 43.272727,26.909091 C 42.429274,27.119954 41.582571,27.122916 40.727273,26.909091 C 40.484848,26.848485 40.242424,26.787879 40,26.727273 C 39.251325,26.540104 38.307725,25.804204 37.636364,25.636364 C 36.764239,25.418332 36.312763,25.207255 35.454545,25.636364 C 34.923586,25.901844 35,27.140315 35,28 C 35,28.904244 33.211015,34.272727 33.454545,29 z "
           id="path3233"
           sodipodi:nodetypes="csssssssssssssssssssssssssssssssc" />
        <path
           style="fill:none;fill-rule:evenodd;stroke:#fff6f6;stroke-width:2.79999995;stroke-linecap:butt;stroke-linejoin:miter;stroke-miterlimit:4;stroke-dasharray:none;stroke-opacity:0.71308019"
           d="M 33.454545,24 C 33.333333,23.69697 33.212121,23.393939 33.090909,23.090909 C 32.710237,22.13923 32.950151,21.399798 33.454545,20.727273 C 34.046705,19.937726 34.945337,19.626425 36,19.818182 C 36.794854,19.962701 37.475154,20.323334 38.363636,20.545455 C 39.600656,20.854709 40.301732,20.061125 40.909091,19.818182 C 41.56631,19.555294 41.454545,17.929921 41.454545,17.090909 C 41.454545,16.12772 41.68317,15.360932 42,14.727273 C 42.461345,13.804583 42.654019,13.055598 43.090909,12.181818 C 43.324997,11.713643 44.078242,11.376304 44.545455,10.909091 C 45.068328,10.386217 45.764167,9.9360984 46.727273,9.4545455 C 47.590688,9.022838 48.131222,8.5707524 48.909091,8.1818182 C 49.743925,7.7644013 50.544353,7.2732782 51.272727,6.9090909 C 52.049298,6.5208054 52.90248,6.2760325 53.454545,6"
           id="path3235" />
      </g>
      <g
         transform="matrix(-0.678786,0,0,-0.6849054,40.504198,64.873251)"
         id="g3237">
        <path
           style="fill:url(#linearGradient3257);fill-opacity:1;fill-rule:evenodd;stroke:#000000;stroke-width:1px;stroke-linecap:butt;stroke-linejoin:miter;stroke-opacity:1"
           d="M 33.454545,29 C 33.154016,28.632922 32.911808,28.235937 32.712826,27.81794 C 32.076568,26.481367 31.882267,24.929962 31.636364,23.454545 C 31.448738,22.328789 31.543704,20.912593 32,20 C 32.435973,19.128054 33.23228,18.712154 34.181818,18 C 35.195396,17.239817 36.344143,18.172071 37.090909,18.545455 C 38.089056,19.044528 38.517488,17.692296 38.727273,17.272727 C 39.258637,16.209999 39.454545,15.29374 39.454545,14 C 39.454545,12.853266 40.012064,11.631538 40.909091,11.272727 C 41.763629,10.930912 42.256645,9.8716775 43.090909,9.4545455 C 43.938896,9.0305522 44.979554,8.1935013 45.636364,7.8181818 C 46.378903,7.3938738 46.552526,6.9964644 47.454545,6.5454545 C 48.197255,6.1740997 48.537997,5.2801846 48.909091,4.9090909 C 49.755126,4.0630558 50.941162,4.3315656 51.818182,3.4545455 C 52.344782,2.9279455 55.061082,3.0049713 55.636364,2.9090909 C 57.497593,2.5988859 58.805266,3.7923503 59.454545,5.0909091 C 59.987398,6.1566142 60,6.9820577 60,8.3636364 C 60,9.3285619 60.545455,10.555992 60.545455,11.818182 C 60.545455,12.670359 59.299437,14.155108 58.909091,14.545455 C 58.018337,15.436209 57.057363,16.016773 56,16.545455 C 55.015269,17.03782 53.786534,16.879057 52.727273,17.090909 C 51.604163,17.315531 50.360825,17.303499 49.454545,17.454545 C 48.592385,17.598239 48.002252,17.953982 47.090909,18.181818 C 46.545798,18.318096 45.565977,19.31674 45.454545,19.818182 C 45.307282,20.480867 45,21.301639 45,22.363636 C 45,23.296647 46.152063,24.137902 45,25.454545 C 44.338523,26.21052 44.318486,26.647651 43.272727,26.909091 C 42.429274,27.119954 41.582571,27.122916 40.727273,26.909091 C 40.484848,26.848485 40.242424,26.787879 40,26.727273 C 39.251325,26.540104 38.307725,25.804204 37.636364,25.636364 C 36.764239,25.418332 36.312763,25.207255 35.454545,25.636364 C 34.923586,25.901844 35,27.140315 35,28 C 35,28.904244 33.211015,34.272727 33.454545,29 z "
           id="path3239"
           sodipodi:nodetypes="csssssssssssssssssssssssssssssssc" />
        <path
           style="fill:none;fill-rule:evenodd;stroke:#fff6f6;stroke-width:2.79999995;stroke-linecap:butt;stroke-linejoin:miter;stroke-miterlimit:4;stroke-dasharray:none;stroke-opacity:0.71308019"
           d="M 33.454545,24 C 33.333333,23.69697 33.212121,23.393939 33.090909,23.090909 C 32.710237,22.13923 32.950151,21.399798 33.454545,20.727273 C 34.046705,19.937726 34.945337,19.626425 36,19.818182 C 36.794854,19.962701 37.475154,20.323334 38.363636,20.545455 C 39.600656,20.854709 40.301732,20.061125 40.909091,19.818182 C 41.56631,19.555294 41.454545,17.929921 41.454545,17.090909 C 41.454545,16.12772 41.68317,15.360932 42,14.727273 C 42.461345,13.804583 42.654019,13.055598 43.090909,12.181818 C 43.324997,11.713643 44.078242,11.376304 44.545455,10.909091 C 45.068328,10.386217 45.764167,9.9360984 46.727273,9.4545455 C 47.590688,9.022838 48.131222,8.5707524 48.909091,8.1818182 C 49.743925,7.7644013 50.544353,7.2732782 51.272727,6.9090909 C 52.049298,6.5208054 52.90248,6.2760325 53.454545,6"
           id="path3241" />
      </g>
    </g>
  </g>
</svg>
