<?xml version="1.0" encoding="UTF-8" standalone="no"?>
<!-- Created with Inkscape (http://www.inkscape.org/) -->
<svg
   xmlns:dc="http://purl.org/dc/elements/1.1/"
   xmlns:cc="http://web.resource.org/cc/"
   xmlns:rdf="http://www.w3.org/1999/02/22-rdf-syntax-ns#"
   xmlns:svg="http://www.w3.org/2000/svg"
   xmlns="http://www.w3.org/2000/svg"
   xmlns:xlink="http://www.w3.org/1999/xlink"
   xmlns:sodipodi="http://sodipodi.sourceforge.net/DTD/sodipodi-0.dtd"
   xmlns:inkscape="http://www.inkscape.org/namespaces/inkscape"
   width="64px"
   height="64px"
   id="svg2160"
   sodipodi:version="0.32"
   inkscape:version="0.45.1"
   sodipodi:docbase="/home/developer/workspace/Themes/citrus_blend"
   sodipodi:docname="spritely-bee.svg"
   inkscape:output_extension="org.inkscape.output.svg.inkscape"
   inkscape:export-filename="/home/developer/workspace/Themes/citrus_blend/spritely-bee.png"
   inkscape:export-xdpi="90"
   inkscape:export-ydpi="90">
  <defs
     id="defs2162">
    <linearGradient
       id="linearGradient3165">
      <stop
         style="stop-color:#000000;stop-opacity:1;"
         offset="0"
         id="stop3167" />
      <stop
         id="stop3173"
         offset="0.5"
         style="stop-color:#ffffff;stop-opacity:0.98823529;" />
      <stop
         style="stop-color:#ffffff;stop-opacity:0.97283953;"
         offset="1"
         id="stop3169" />
    </linearGradient>
    <linearGradient
       id="linearGradient3151">
      <stop
         style="stop-color:#fbfbfb;stop-opacity:1;"
         offset="0"
         id="stop3153" />
      <stop
         style="stop-color:#000000;stop-opacity:0;"
         offset="1"
         id="stop3155" />
    </linearGradient>
    <linearGradient
       inkscape:collect="always"
       xlink:href="#linearGradient3151"
       id="linearGradient3157"
       x1="39.33115"
       y1="30.097464"
       x2="65"
       y2="30.097464"
       gradientUnits="userSpaceOnUse" />
    <linearGradient
       inkscape:collect="always"
       xlink:href="#linearGradient3151"
       id="linearGradient3208"
       gradientUnits="userSpaceOnUse"
       x1="39.33115"
       y1="30.097464"
       x2="65"
       y2="30.097464" />
    <linearGradient
       inkscape:collect="always"
       xlink:href="#linearGradient3151"
       id="linearGradient3210"
       gradientUnits="userSpaceOnUse"
       x1="-2.5626753"
       y1="27.30837"
       x2="21.431762"
       y2="27.30837" />
    <radialGradient
       inkscape:collect="always"
       xlink:href="#linearGradient3165"
       id="radialGradient3212"
       gradientUnits="userSpaceOnUse"
       gradientTransform="matrix(1,0,0,0.8430141,0,5.0949054)"
       cx="27.09091"
       cy="32.454544"
       fx="27.09091"
       fy="32.454544"
       r="2.8954545" />
    <radialGradient
       inkscape:collect="always"
       xlink:href="#linearGradient3165"
       id="radialGradient3214"
       gradientUnits="userSpaceOnUse"
       gradientTransform="matrix(1,0,0,0.8430141,0,5.0949054)"
       cx="27.09091"
       cy="32.454544"
       fx="27.09091"
       fy="32.454544"
       r="2.8954545" />
    <linearGradient
       inkscape:collect="always"
       xlink:href="#linearGradient3151"
       id="linearGradient3279"
       gradientUnits="userSpaceOnUse"
       x1="-2.5626753"
       y1="27.30837"
       x2="21.431762"
       y2="27.30837"
       gradientTransform="matrix(0.9193432,0,0,0.727164,3.3008349,-0.2337505)" />
    <linearGradient
       inkscape:collect="always"
       xlink:href="#linearGradient3151"
       id="linearGradient3286"
       gradientUnits="userSpaceOnUse"
       x1="39.33115"
       y1="30.097464"
       x2="65"
       y2="30.097464"
       gradientTransform="matrix(0.9193432,0,0,0.727164,3.3008349,-0.2337505)" />
  </defs>
  <sodipodi:namedview
     id="base"
     pagecolor="#ffffff"
     bordercolor="#666666"
     borderopacity="1.0"
     inkscape:pageopacity="0.0"
     inkscape:pageshadow="2"
     inkscape:zoom="5.5"
     inkscape:cx="32"
     inkscape:cy="30.618109"
     inkscape:current-layer="layer1"
     showgrid="true"
     inkscape:document-units="px"
     inkscape:grid-bbox="true"
     showguides="true"
     inkscape:guide-bbox="true"
     inkscape:window-width="872"
     inkscape:window-height="627"
     inkscape:window-x="8"
     inkscape:window-y="57" />
  <metadata
     id="metadata2165">
    <rdf:RDF>
      <cc:Work
         rdf:about="">
        <dc:format>image/svg+xml</dc:format>
        <dc:type
           rdf:resource="http://purl.org/dc/dcmitype/StillImage" />
      </cc:Work>
    </rdf:RDF>
  </metadata>
  <g
     id="layer1"
     inkscape:label="Layer 1"
     inkscape:groupmode="layer">
    <path
       style="fill:url(#linearGradient3286);fill-opacity:1;fill-rule:evenodd;stroke:#000000;stroke-width:0.8176266px;stroke-linecap:butt;stroke-linejoin:miter;stroke-opacity:1"
       d="M 40.574744,27.652792 C 53.896657,34.15151 62.628875,32.226925 62.598391,25.165083 C 62.567908,18.10324 58.240377,9.5158637 51.30448,12.17075 C 44.368584,14.825636 39.919332,28.062981 39.919332,28.062981 L 40.574744,27.652792 z "
       id="path2168" />
    <path
       style="fill:#000000;fill-opacity:1;fill-rule:evenodd;stroke:#000000;stroke-width:0.54439062px;stroke-linecap:butt;stroke-linejoin:miter;stroke-opacity:1"
       d="M 30.383948,42.189479 C 22.728377,42.844462 20.116323,49.202324 24.582756,50.344349 C 29.049188,51.486375 29.696898,51.66515 29.696898,51.66515 C 29.696898,51.66515 36.254229,52.567499 38.964519,50.865207 C 41.674808,49.162915 45.963373,47.260965 42.642522,44.710804 C 39.32167,42.160644 30.970752,42.124557 30.970752,42.124557 L 30.383948,42.189479 z "
       id="path3147" />
    <path
       style="fill:#fffd00;fill-opacity:1;fill-rule:evenodd;stroke:#000000;stroke-width:0.59059775px;stroke-linecap:butt;stroke-linejoin:miter;stroke-opacity:1"
       d="M 29.982226,39.360412 C 20.938212,40.012955 17.852426,46.347128 23.128907,47.484898 C 28.405387,48.622669 29.170569,48.800777 29.170569,48.800777 C 29.170569,48.800777 36.917161,49.699764 40.118998,48.003815 C 43.320836,46.307866 48.387191,44.413002 44.464059,41.872343 C 40.540925,39.331684 30.675454,39.295732 30.675454,39.295732 L 29.982226,39.360412 z "
       id="path3149" />
    <path
       style="fill:#000000;fill-opacity:1;fill-rule:evenodd;stroke:#000000;stroke-width:0.75365716px;stroke-linecap:butt;stroke-linejoin:miter;stroke-opacity:1"
       d="M 29.772102,30.801742 C 20.37475,31.824396 17.168406,41.751202 22.651033,43.534297 C 28.133659,45.317391 28.928736,45.59652 28.928736,45.59652 C 28.928736,45.59652 36.977979,47.005396 40.304908,44.347535 C 43.631837,41.689672 48.89613,38.720074 44.819724,34.738397 C 40.743319,30.75672 30.492414,30.700378 30.492414,30.700378 L 29.772102,30.801742 z "
       id="path2174" />
    <path
       style="fill:#fffd00;fill-opacity:1;fill-rule:evenodd;stroke:#000000;stroke-width:0.8176266px;stroke-linecap:butt;stroke-linejoin:miter;stroke-opacity:1"
       d="M 29.27898,26.384597 C 18.177289,27.403441 14.389431,37.29326 20.866407,39.069711 C 27.343382,40.846162 28.282657,41.12425 28.282657,41.12425 C 28.282657,41.12425 37.79174,42.527877 41.722053,39.879919 C 45.652367,37.231959 51.87141,34.273426 47.055694,30.306584 C 42.239977,26.339742 30.12993,26.28361 30.12993,26.28361 L 29.27898,26.384597 z "
       id="path2170" />
    <path
       style="fill:#000000;fill-opacity:1;fill-rule:evenodd;stroke:#000000;stroke-width:0.46978077px;stroke-linecap:butt;stroke-linejoin:miter;stroke-opacity:1"
       d="M 29.809327,28.273716 C 22.931071,28.81659 20.584234,34.086214 24.597163,35.032766 C 28.610092,35.979318 29.192036,36.127492 29.192036,36.127492 C 29.192036,36.127492 35.083564,36.875391 37.518661,35.464471 C 39.953761,34.05355 43.80688,32.477146 40.823215,30.36348 C 37.83955,28.249816 30.336549,28.219906 30.336549,28.219906 L 29.809327,28.273716 z "
       id="path3288" />
    <path
       style="fill:url(#linearGradient3279);fill-opacity:1;fill-rule:evenodd;stroke:#000000;stroke-width:0.8176266px;stroke-linecap:butt;stroke-linejoin:miter;stroke-opacity:1"
       d="M 22.045083,28.341351 C 6.8933459,31.445783 -0.73384192,27.571028 1.9267031,20.829977 C 4.5872489,14.088926 11.922417,6.8918361 17.560947,11.045693 C 23.199477,15.199551 22.518536,28.886108 22.518536,28.886108 L 22.045083,28.341351 z "
       id="path2172" />
    <path
       style="fill:#fcff17;fill-opacity:1;fill-rule:evenodd;stroke:#000000;stroke-width:0.8176266px;stroke-linecap:butt;stroke-linejoin:miter;stroke-opacity:1"
       d="M 26.284415,30.968196 C 26.702298,31.232619 26.702298,33.876852 30.212517,33.480217 C 33.722737,33.083582 37.065804,35.066757 37.734416,33.876852 C 38.40303,32.686947 39.238796,30.571561 39.238796,30.571561 C 39.238796,30.571561 43.584783,22.638862 37.734416,20.854006 C 31.884051,19.069149 29.209598,17.482609 26.702298,19.465783 C 24.194999,21.448958 25.365072,30.571561 25.365072,30.571561 L 26.284415,30.968196 z "
       id="path3161" />
    <path
       sodipodi:type="arc"
       style="fill:url(#radialGradient3212);fill-opacity:1;fill-rule:evenodd;stroke:#000000;stroke-width:0.69999999;stroke-linejoin:round;stroke-miterlimit:4;stroke-dasharray:none;stroke-dashoffset:10.92;stroke-opacity:1"
       id="path3163"
       sodipodi:cx="27.09091"
       sodipodi:cy="32.454544"
       sodipodi:rx="2.5454545"
       sodipodi:ry="2.090909"
       d="M 29.636364 32.454544 A 2.5454545 2.090909 0 1 1  24.545455,32.454544 A 2.5454545 2.090909 0 1 1  29.636364 32.454544 z"
       transform="matrix(2.1865935,0,0,2.1687206,-33.955312,-51.107456)" />
    <path
       sodipodi:type="arc"
       style="fill:url(#radialGradient3214);fill-opacity:1;fill-rule:evenodd;stroke:#000000;stroke-width:0.69999999;stroke-linejoin:round;stroke-miterlimit:4;stroke-dasharray:none;stroke-dashoffset:10.92;stroke-opacity:1"
       id="path3175"
       sodipodi:cx="27.09091"
       sodipodi:cy="32.454544"
       sodipodi:rx="2.5454545"
       sodipodi:ry="2.090909"
       d="M 29.636364 32.454544 A 2.5454545 2.090909 0 1 1  24.545455,32.454544 A 2.5454545 2.090909 0 1 1  29.636364 32.454544 z"
       transform="matrix(2.1865935,0,0,2.1687206,-20.165165,-51.590029)" />
    <path
       style="fill:#c52a2a;fill-opacity:1;fill-rule:evenodd;stroke:#000000;stroke-width:0.8176266px;stroke-linecap:butt;stroke-linejoin:miter;stroke-opacity:1"
       d="M 36.731496,26.076365 C 36.731496,26.076365 37.065804,27.795117 33.388431,27.662905 C 29.711058,27.530693 27.203758,25.415307 27.705218,25.547518 C 28.206678,25.67973 26.702298,29.646079 31.382591,30.174926 C 36.062884,30.703773 36.89865,26.737423 36.89865,26.737423 L 36.062884,26.340789 L 35.89573,26.869635 L 36.062884,27.134058"
       id="path3179" />
    <path
       style="fill:none;fill-rule:evenodd;stroke:#000000;stroke-width:0.8176266px;stroke-linecap:butt;stroke-linejoin:miter;stroke-opacity:1"
       d="M 26.284415,13.912894 C 26.162745,12.874546 26.780946,11.360871 25.699378,10.872027 C 24.355272,10.264521 23.218854,9.9465455 21.687699,9.9465455 C 20.512181,9.9465455 21.687699,7.5512237 21.687699,7.0378895 C 21.687699,6.2152951 19.32857,5.6009953 18.177479,5.054715 C 17.02981,4.5100585 16.495854,4.3391757 15.16872,4.1292335 C 14.999356,4.1024414 14.688427,4.0342601 14.500106,3.9970219"
       id="path3181" />
    <path
       style="fill:none;fill-rule:evenodd;stroke:#000000;stroke-width:0.8176266px;stroke-linecap:butt;stroke-linejoin:miter;stroke-opacity:1"
       d="M 38.90449,14.045106 C 37.640508,13.845155 37.487652,11.942266 37.232957,11.13645 C 36.769085,9.6688314 37.758977,8.1519753 39.238796,7.5667362 C 40.174327,7.1967523 43.287085,6.3107255 44.253396,6.3107255 C 45.218858,6.3107255 45.486866,5.1162654 46.259236,4.65808 C 47.895201,3.687592 46.505883,1.7320905 49.267995,2.2782706 C 50.174233,2.4574702 51.668472,4.0270103 53.446828,4.2614451 C 54.667525,4.4223656 55.715997,3.6565272 56.288434,3.203752 C 56.344152,3.1596815 56.39987,3.2918931 56.455587,3.3359637"
       id="path3183" />
    <path
       style="fill:#000000;fill-opacity:1;fill-rule:evenodd;stroke:#000000;stroke-width:0.8176266px;stroke-linecap:butt;stroke-linejoin:miter;stroke-opacity:1"
       d="M 13.66434,3.4681753 C 14.495451,2.8107999 10.439189,2.3018405 10.154121,3.203752 C 9.9014748,4.0030831 12.118218,5.1539101 12.494267,5.4513499 C 13.463256,6.2177815 15.837333,4.7691851 15.837333,3.9970219 C 15.837333,2.6205568 14.875547,2.6749055 13.497187,2.6749055 C 12.202261,2.6749055 14.596032,3.7840028 12.494267,3.0715404 C 12.391841,3.03682 12.494267,3.2478226 12.494267,3.3359637"
       id="path3185" />
    <path
       style="fill:#000000;fill-opacity:1;fill-rule:evenodd;stroke:#000000;stroke-width:0.8176266px;stroke-linecap:butt;stroke-linejoin:miter;stroke-opacity:1"
       d="M 55.619821,2.6749055 C 54.630739,2.3396236 56.028984,4.4528655 56.789894,5.054715 C 57.436088,5.5658292 59.274564,4.7331354 59.798653,4.5258684 C 61.039901,4.0349794 59.966322,2.9397359 59.6315,2.6749055 C 58.592529,1.8531207 57.627128,1.511211 56.12128,1.749424 C 53.936358,2.0950614 56.23664,5.1143035 55.619821,2.6749055 z "
       id="path3187" />
    <path
       style="fill:#000000;fill-opacity:1;fill-rule:evenodd;stroke:#000000;stroke-width:0.8176266px;stroke-linecap:butt;stroke-linejoin:miter;stroke-opacity:1"
       d="M 23.526385,49.940566 C 24.194999,50.403306 33.722737,61.905718 34.224197,62.566777 C 34.725657,63.227835 42.916169,47.362438 43.250475,48.023497 C 43.584783,48.684555 23.693538,50.006671 23.526385,49.940566 z "
       id="path3189" />
  </g>
</svg>
