<?xml version="1.0" encoding="UTF-8" standalone="no"?>
<!-- Created with Inkscape (http://www.inkscape.org/) -->
<svg
   xmlns:dc="http://purl.org/dc/elements/1.1/"
   xmlns:cc="http://web.resource.org/cc/"
   xmlns:rdf="http://www.w3.org/1999/02/22-rdf-syntax-ns#"
   xmlns:svg="http://www.w3.org/2000/svg"
   xmlns="http://www.w3.org/2000/svg"
   xmlns:xlink="http://www.w3.org/1999/xlink"
   xmlns:sodipodi="http://sodipodi.sourceforge.net/DTD/sodipodi-0.dtd"
   xmlns:inkscape="http://www.inkscape.org/namespaces/inkscape"
   width="256"
   height="256"
   id="svg3888"
   sodipodi:version="0.32"
   inkscape:version="0.45.1"
   version="1.0"
   sodipodi:docbase="/home/developer/Desktop/content"
   sodipodi:docname="spritely-icon.svg"
   inkscape:output_extension="org.inkscape.output.svg.inkscape"
   inkscape:export-filename="/home/developer/Desktop/content/spritely-icon.png"
   inkscape:export-xdpi="90"
   inkscape:export-ydpi="90">
  <defs
     id="defs3890">
    <linearGradient
       id="linearGradient4034">
      <stop
         style="stop-color:#fffbfb;stop-opacity:1;"
         offset="0"
         id="stop4036" />
      <stop
         style="stop-color:#000000;stop-opacity:0;"
         offset="1"
         id="stop4038" />
    </linearGradient>
    <linearGradient
       id="linearGradient4026">
      <stop
         style="stop-color:#ffffff;stop-opacity:1;"
         offset="0"
         id="stop4028" />
      <stop
         style="stop-color:#000000;stop-opacity:0;"
         offset="1"
         id="stop4030" />
    </linearGradient>
    <linearGradient
       id="linearGradient4002">
      <stop
         style="stop-color:#191400;stop-opacity:1;"
         offset="0"
         id="stop4004" />
      <stop
         style="stop-color:#191400;stop-opacity:0.93580246;"
         offset="1"
         id="stop4006" />
    </linearGradient>
    <linearGradient
       inkscape:collect="always"
       id="linearGradient3988">
      <stop
         style="stop-color:#191400;stop-opacity:1;"
         offset="0"
         id="stop3990" />
      <stop
         style="stop-color:#191400;stop-opacity:0;"
         offset="1"
         id="stop3992" />
    </linearGradient>
    <linearGradient
       id="linearGradient3980">
      <stop
         style="stop-color:#ffda44;stop-opacity:1;"
         offset="0"
         id="stop3982" />
      <stop
         style="stop-color:#191400;stop-opacity:0;"
         offset="1"
         id="stop3984" />
    </linearGradient>
    <linearGradient
       id="linearGradient3964">
      <stop
         style="stop-color:#bbad77;stop-opacity:1;"
         offset="0"
         id="stop3966" />
      <stop
         style="stop-color:#191400;stop-opacity:0.97283953;"
         offset="1"
         id="stop3968" />
    </linearGradient>
    <linearGradient
       id="linearGradient3954">
      <stop
         style="stop-color:#191400;stop-opacity:1;"
         offset="0"
         id="stop3956" />
      <stop
         style="stop-color:#191400;stop-opacity:0.99259257;"
         offset="1"
         id="stop3958" />
    </linearGradient>
    <linearGradient
       inkscape:collect="always"
       id="linearGradient3908">
      <stop
         style="stop-color:#000000;stop-opacity:1;"
         offset="0"
         id="stop3910" />
      <stop
         style="stop-color:#000000;stop-opacity:0;"
         offset="1"
         id="stop3912" />
    </linearGradient>
    <radialGradient
       inkscape:collect="always"
       xlink:href="#linearGradient3908"
       id="radialGradient3914"
       cx="195.71454"
       cy="79.163116"
       fx="195.71454"
       fy="79.163116"
       r="31.54468"
       gradientTransform="matrix(1,0,0,1.5472931,0,-43.325425)"
       gradientUnits="userSpaceOnUse" />
    <radialGradient
       inkscape:collect="always"
       xlink:href="#linearGradient3908"
       id="radialGradient3916"
       cx="74.219856"
       cy="73.031914"
       fx="74.219856"
       fy="73.031914"
       r="37.837235"
       gradientTransform="matrix(1,0,0,1.2643836,0,-19.308439)"
       gradientUnits="userSpaceOnUse" />
    <linearGradient
       inkscape:collect="always"
       xlink:href="#linearGradient3954"
       id="linearGradient3960"
       x1="162.13364"
       y1="44.114594"
       x2="203.59109"
       y2="44.114594"
       gradientUnits="userSpaceOnUse"
       gradientTransform="translate(0.4563597,0.7986295)" />
    <linearGradient
       inkscape:collect="always"
       xlink:href="#linearGradient3954"
       id="linearGradient3962"
       x1="159.32194"
       y1="79.155967"
       x2="197.32291"
       y2="79.155967"
       gradientUnits="userSpaceOnUse"
       gradientTransform="translate(2.5066199,-6.0529067)" />
    <linearGradient
       inkscape:collect="always"
       xlink:href="#linearGradient3964"
       id="linearGradient3970"
       x1="-101.46438"
       y1="4.4562526"
       x2="225.21408"
       y2="77.38533"
       gradientUnits="userSpaceOnUse" />
    <linearGradient
       inkscape:collect="always"
       xlink:href="#linearGradient3964"
       id="linearGradient3978"
       x1="-53.223465"
       y1="61.48431"
       x2="169.39738"
       y2="108.92048"
       gradientUnits="userSpaceOnUse"
       gradientTransform="matrix(1.1992775,0,0,1.0996143,-23.714064,-8.1071179)" />
    <linearGradient
       inkscape:collect="always"
       xlink:href="#linearGradient3980"
       id="linearGradient3986"
       x1="13.834211"
       y1="171.98867"
       x2="172.39523"
       y2="82.279442"
       gradientUnits="userSpaceOnUse"
       gradientTransform="translate(0,0.322695)" />
    <linearGradient
       inkscape:collect="always"
       xlink:href="#linearGradient3988"
       id="linearGradient3994"
       x1="23.114126"
       y1="193.12121"
       x2="53.421986"
       y2="193.12121"
       gradientUnits="userSpaceOnUse"
       gradientTransform="matrix(0.9807364,-0.1953359,0.1953359,0.9807364,-36.018237,16.03576)" />
    <linearGradient
       inkscape:collect="always"
       xlink:href="#linearGradient3988"
       id="linearGradient3996"
       x1="26.394375"
       y1="187.09992"
       x2="73.751774"
       y2="187.09992"
       gradientUnits="userSpaceOnUse"
       gradientTransform="matrix(0.9766598,-0.2147923,0.2147923,0.9766598,-32.242302,16.090352)" />
    <linearGradient
       inkscape:collect="always"
       xlink:href="#linearGradient3988"
       id="linearGradient3998"
       x1="37.577002"
       y1="174.13869"
       x2="110.8617"
       y2="174.13869"
       gradientUnits="userSpaceOnUse"
       gradientTransform="matrix(1.0450406,-5.3677648e-2,5.3689472e-2,1.0448104,-10.91193,-6.8886227)" />
    <linearGradient
       inkscape:collect="always"
       xlink:href="#linearGradient3988"
       id="linearGradient4000"
       x1="52.958276"
       y1="155.63437"
       x2="127.79289"
       y2="155.63437"
       gradientUnits="userSpaceOnUse"
       gradientTransform="translate(3.2269504,-3.8723405)" />
    <linearGradient
       inkscape:collect="always"
       xlink:href="#linearGradient4002"
       id="linearGradient4008"
       x1="10.148329"
       y1="220.17829"
       x2="35.277926"
       y2="220.17829"
       gradientUnits="userSpaceOnUse"
       gradientTransform="translate(-0.322695,4.1950355)" />
    <linearGradient
       inkscape:collect="always"
       xlink:href="#linearGradient4026"
       id="linearGradient4032"
       x1="13.604792"
       y1="54.303198"
       x2="117.3156"
       y2="54.303198"
       gradientUnits="userSpaceOnUse" />
    <linearGradient
       inkscape:collect="always"
       xlink:href="#linearGradient4034"
       id="linearGradient4040"
       x1="194.03822"
       y1="148.86525"
       x2="297.74902"
       y2="148.86525"
       gradientUnits="userSpaceOnUse" />
    <linearGradient
       inkscape:collect="always"
       xlink:href="#linearGradient4026"
       id="linearGradient4042"
       gradientUnits="userSpaceOnUse"
       x1="13.604792"
       y1="54.303198"
       x2="117.3156"
       y2="54.303198" />
    <linearGradient
       inkscape:collect="always"
       xlink:href="#linearGradient4026"
       id="linearGradient4044"
       gradientUnits="userSpaceOnUse"
       x1="13.604792"
       y1="54.303198"
       x2="117.3156"
       y2="54.303198" />
    <linearGradient
       inkscape:collect="always"
       xlink:href="#linearGradient4026"
       id="linearGradient4046"
       gradientUnits="userSpaceOnUse"
       x1="13.604792"
       y1="54.303198"
       x2="117.3156"
       y2="54.303198" />
    <linearGradient
       inkscape:collect="always"
       xlink:href="#linearGradient4026"
       id="linearGradient4049"
       gradientUnits="userSpaceOnUse"
       x1="13.604792"
       y1="54.303198"
       x2="117.3156"
       y2="54.303198"
       gradientTransform="translate(12.585106,5.1631206)" />
    <linearGradient
       inkscape:collect="always"
       xlink:href="#linearGradient4026"
       id="linearGradient4052"
       gradientUnits="userSpaceOnUse"
       x1="13.604792"
       y1="54.303198"
       x2="117.3156"
       y2="54.303198"
       gradientTransform="translate(12.585106,5.1631206)" />
    <linearGradient
       inkscape:collect="always"
       xlink:href="#linearGradient4026"
       id="linearGradient4055"
       gradientUnits="userSpaceOnUse"
       x1="13.604792"
       y1="54.303198"
       x2="117.3156"
       y2="54.303198"
       gradientTransform="translate(9.0354607,3.8723404)" />
    <linearGradient
       inkscape:collect="always"
       xlink:href="#linearGradient4034"
       id="linearGradient4057"
       gradientUnits="userSpaceOnUse"
       x1="194.03822"
       y1="148.86525"
       x2="297.74902"
       y2="148.86525" />
    <linearGradient
       inkscape:collect="always"
       xlink:href="#linearGradient4034"
       id="linearGradient4059"
       gradientUnits="userSpaceOnUse"
       x1="194.03822"
       y1="148.86525"
       x2="297.74902"
       y2="148.86525" />
    <linearGradient
       inkscape:collect="always"
       xlink:href="#linearGradient4034"
       id="linearGradient4061"
       gradientUnits="userSpaceOnUse"
       x1="194.03822"
       y1="148.86525"
       x2="297.74902"
       y2="148.86525" />
    <linearGradient
       inkscape:collect="always"
       xlink:href="#linearGradient4034"
       id="linearGradient4064"
       gradientUnits="userSpaceOnUse"
       x1="194.03822"
       y1="148.86525"
       x2="297.74902"
       y2="148.86525"
       gradientTransform="matrix(0.1244467,0.9796815,-0.9991302,0.1269173,317.32932,-110.21863)" />
    <linearGradient
       inkscape:collect="always"
       xlink:href="#linearGradient4034"
       id="linearGradient4067"
       gradientUnits="userSpaceOnUse"
       x1="194.03822"
       y1="148.86525"
       x2="297.74902"
       y2="148.86525"
       gradientTransform="matrix(0.1244467,0.9796815,-0.9991302,0.1269173,317.32932,-110.21863)" />
    <linearGradient
       inkscape:collect="always"
       xlink:href="#linearGradient4034"
       id="linearGradient4070"
       gradientUnits="userSpaceOnUse"
       x1="194.03822"
       y1="148.86525"
       x2="297.74902"
       y2="148.86525"
       gradientTransform="matrix(0.1244467,0.9796815,-0.9991302,0.1269173,316.81417,-110.72389)" />
  </defs>
  <sodipodi:namedview
     id="base"
     pagecolor="#ffffff"
     bordercolor="#666666"
     borderopacity="1.0"
     inkscape:pageopacity="0.0"
     inkscape:pageshadow="2"
     inkscape:zoom="2.191254"
     inkscape:cx="138.64523"
     inkscape:cy="142.84515"
     inkscape:current-layer="layer1"
     inkscape:document-units="px"
     width="256px"
     height="256px"
     inkscape:window-width="1920"
     inkscape:window-height="1085"
     inkscape:window-x="0"
     inkscape:window-y="57" />
  <metadata
     id="metadata3893">
    <rdf:RDF>
      <cc:Work
         rdf:about="">
        <dc:format>image/svg+xml</dc:format>
        <dc:type
           rdf:resource="http://purl.org/dc/dcmitype/StillImage" />
      </cc:Work>
    </rdf:RDF>
  </metadata>
  <g
     id="layer1"
     inkscape:label="Layer 1"
     inkscape:groupmode="layer">
    <path
       style="fill:#191400;fill-opacity:1;fill-rule:evenodd;stroke:#000000;stroke-width:1px;stroke-linecap:butt;stroke-linejoin:miter;stroke-opacity:1"
       d="M 170.14036,106.17685 C 170.45531,105.50579 174.30908,106.04889 174.99532,106.70187 C 176.87438,108.48986 177.64632,108.94713 178.34145,111.4607 C 178.80132,113.12358 179.09075,115.63747 179.12283,116.92879 C 179.17568,119.05688 180.194,121.06757 180.25085,123.35667 C 180.29775,125.24537 180.80405,126.97729 180.38704,128.84079 C 179.80693,131.43313 180.52437,134.3198 179.94213,136.92171 C 179.41567,139.27434 179.68286,141.66427 179.1506,144.04285 C 178.74026,145.87654 178.01956,148.12002 177.35922,149.89764 C 176.38257,152.52673 176.27758,155.39058 175.30135,158.0186 C 173.89933,161.79277 172.07998,164.88223 170.39617,168.46984 C 169.16257,171.09823 167.78948,173.18167 166.37868,175.6711 C 166.1415,176.08961 165.96991,176.54204 165.76553,176.9775 C 164.61197,179.43533 162.65776,182.22965 160.78026,184.20279 C 159.67825,185.36091 158.24714,186.2029 157.3038,187.19426 C 155.91824,188.65042 154.96887,190.31016 153.54481,191.80674 C 151.66937,193.7777 149.2043,194.24699 147.18904,195.83811 C 145.16958,197.43256 144.47891,198.02426 146.54385,195.85414 C 148.76789,193.51682 150.36784,191.06666 151.5131,187.98366 C 152.95012,184.11526 154.94458,180.46708 156.39424,176.56464 C 157.98151,172.29175 160.57775,166.48882 162.82426,162.52479 C 165.33652,158.09182 165.91279,152.83392 167.63329,148.20241 C 169.36116,143.55102 170.87769,138.68269 172.11972,133.88803 C 173.1715,129.82778 173.51766,125.849 174.40407,121.88789 C 174.74562,120.36156 173.67419,117.48693 173.29207,116.10521 C 172.71589,114.02174 172.55761,113.44332 170.93777,112.29015 C 169.21468,111.06346 169.27771,110.43402 169.22065,108.13646 C 169.20273,107.41511 169.83379,106.83005 170.14036,106.17685 z "
       id="path3946" />
    <path
       style="fill:url(#linearGradient3978);fill-opacity:1;fill-rule:evenodd;stroke:#000000;stroke-width:1.14836514px;stroke-linecap:butt;stroke-linejoin:miter;stroke-opacity:1"
       d="M 107.47925,112.29673 C 108.12426,112.17846 108.76925,112.06017 109.41426,111.9419 C 111.47187,111.56458 116.60447,120.00532 117.92827,121.52257 C 120.93708,124.97105 122.0438,129.06959 124.1203,132.87747 C 126.13859,136.5786 126.35082,141.32906 127.21631,145.29686 C 127.8094,148.01592 128.57562,150.46411 129.15129,153.10334 C 129.80546,156.10231 132.85858,157.64165 135.34333,158.78078 C 137.07355,159.57402 142.59091,157.05491 144.24433,156.29691 C 147.87473,154.63256 151.89285,150.02165 154.30637,147.07107 C 157.86507,142.72043 162.56815,139.85069 166.69039,136.07102 C 170.01627,133.02153 173.87627,127.5755 175.59141,123.65161 C 178.00551,118.12865 178.30851,123.31671 180.23542,106.26446 C 180.76534,101.57497 181.06795,96.18876 179.84842,91.716014 C 178.73421,87.629512 174.50623,83.907716 171.72141,80.715971 C 170.22528,79.001236 168.62715,77.169176 167.0774,75.748211 C 164.68671,73.556203 161.65379,70.954018 159.33739,69.36109 C 156.61981,67.492287 154.96083,67.20465 151.98436,66.522371 C 147.35044,65.460165 143.69733,66.143079 139.21333,65.45785 C 134.87127,64.794314 131.36299,64.393329 126.82929,64.393329 C 124.46566,64.393329 119.86513,67.585193 117.92827,69.36109 C 114.78018,72.247575 109.8959,75.349986 105.93124,77.167571 C 100.8134,79.513849 98.430944,81.695752 95.869228,86.393413 C 93.186672,91.312656 89.652087,95.333503 87.742202,100.58702 C 86.182808,104.87643 85.817964,105.92936 87.742202,109.45801 C 89.262787,112.24646 91.689055,112.29673 94.708219,112.29673 C 96.99446,112.29673 99.589067,112.29673 102.06123,112.29673 C 106.44529,112.29673 106.41705,113.91617 108.64026,114.42577 C 111.32919,115.04215 110.42066,113.92919 111.73626,115.13545"
       id="path3920"
       sodipodi:nodetypes="cssssssssssssssssssssssssssc" />
    <path
       style="fill:url(#linearGradient3986);fill-opacity:1;fill-rule:evenodd;stroke:#000000;stroke-width:1px;stroke-linecap:butt;stroke-linejoin:miter;stroke-opacity:1"
       d="M 90.677306,109.17376 C 92.366965,109.5813 121.74969,110.62509 113.58865,111.43263 C 110.67649,111.72079 80.477489,107.56029 77.446809,107.56029 C 74.327727,107.56029 68.950148,109.5764 66.475178,111.43263 C 62.510408,114.40621 58.415495,116.58806 54.858156,120.14539 C 51.571814,123.43174 47.008282,126.0591 43.56383,129.50355 C 39.922658,133.14472 37.149553,138.04271 34.528369,142.41135 C 34.157125,143.03009 33.882979,143.70213 33.560284,144.34752 C 31.708534,148.05102 28.307018,151.38193 26.138298,154.99646 C 24.534534,157.6694 22.826796,160.90503 22.265958,163.70922 C 21.432391,167.87706 20.975177,171.63275 20.975177,175.97164 C 20.975177,179.25237 21.941628,183.06275 22.588653,186.29788 C 22.696218,186.8357 22.803783,187.37353 22.911348,187.91135 C 23.42389,190.47406 22.956149,193.25368 23.556738,195.65603 C 24.025847,197.53247 22.911348,200.34524 22.911348,202.43263 C 22.911348,204.58393 22.911348,206.73523 22.911348,208.88653 C 22.911348,210.90129 22.961582,212.83039 22.588653,214.69504 C 22.180654,216.73503 22.184637,219.05272 21.297873,220.82625 C 19.915612,223.59077 19.694395,226.51053 18.070922,229.21632 C 16.756259,231.40742 15.011312,232.89735 14.521277,235.34752 C 13.851866,238.69458 15.066065,236.59084 16.780142,233.73405 C 17.102837,233.19622 17.425532,232.6584 17.748227,232.12057 C 18.918707,230.16977 20.26097,228.54187 21.943263,227.28015 C 24.114386,225.6518 26.281421,224.02653 28.397163,222.43972 C 29.769325,221.4106 33.868876,222.11703 35.173759,222.11703 C 37.53947,222.11703 40.365254,222.31632 42.595745,222.76242 C 45.905179,223.4243 48.147562,224.32455 51.631206,225.02128 C 56.264024,225.94784 59.696854,226.63451 64.216313,227.28015 C 66.366283,227.58729 69.879996,226.40557 71.960993,225.98937 C 74.010595,225.57945 75.813751,224.69859 78.092199,224.69859 C 82.987986,224.69859 86.831188,224.58228 91.322696,223.08511 C 102.51,219.35601 97.103193,220.45582 104.55319,215.98582 C 105.17193,215.61458 105.84397,215.34043 106.48936,215.01774 C 110.05335,213.23574 112.13227,207.39937 114.55673,204.3688 C 117.76945,200.35291 120.06525,195.789 123.2695,191.78369 C 125.49424,189.00277 128.1851,185.35179 129.07801,181.78015 C 129.90722,178.46331 131.17022,175.34749 131.98227,172.0993 C 132.52842,169.91467 133.27305,167.30211 133.27305,165 C 133.27305,163.02288 133.77136,162.15285 133.27305,160.15958 C 132.83455,158.40561 133.04888,156.68136 132.62766,154.99646 C 132.29006,153.64607 132.64504,153.09505 131.98227,151.76951 C 131.8747,151.55438 116.27778,111.5402 116.49291,111.43263"
       id="path3922"
       sodipodi:nodetypes="cssssssssssssssssssssssssssssssssssssssssc" />
    <path
       style="fill:url(#linearGradient3970);fill-rule:evenodd;stroke:#000000;stroke-width:1px;stroke-linecap:butt;stroke-linejoin:miter;stroke-opacity:1;fill-opacity:1.0"
       d="M 134.88652,66.900708 C 133.93329,64.994252 135.58847,61.681024 136.82269,60.446807 C 138.44117,58.828326 139.52044,55.666592 141.01773,53.670211 C 142.56808,51.603077 144.88103,49.161516 146.82624,47.216311 C 148.91681,45.125741 151.41472,43.48763 154.57092,42.69858 C 157.64908,41.929039 160.81181,40.896335 163.92907,40.11702 C 166.22607,39.542771 168.14904,38.82624 170.70567,38.82624 C 172.48803,38.82624 174.2704,38.749337 175.86879,39.148935 C 177.89025,39.654299 179.83463,40.486465 181.6773,41.4078 C 183.72151,42.429905 185.48351,43.956296 187.48581,44.957445 C 189.52162,45.975347 191.51071,47.691561 192.97163,49.152481 C 194.64737,50.828219 196.10585,51.641317 197.81205,53.347516 C 199.38667,54.922131 200.9184,56.131167 202.00709,57.219857 C 203.56002,58.772788 205.25825,60.222946 206.84751,61.414892 C 208.06525,62.328196 209.3554,63.277389 210.71985,64.641843 C 211.60251,65.524493 213.49092,66.350072 214.5922,66.900708 C 216.9683,68.08876 218.86446,70.488966 221.36879,71.741133 C 223.24557,72.679524 224.33681,74.031882 226.20922,74.968084 C 227.59726,75.662106 229.30324,77.094026 230.08156,77.872339 C 231.54529,79.336071 232.46222,78.48728 229.75886,79.163119 C 228.21922,79.54803 227.2565,79.446217 225.88652,80.131204 C 224.43924,80.854846 222.78031,81.896147 221.69149,82.712765 C 220.55259,83.566933 219.72784,83.385632 218.46454,84.648935 C 217.42856,85.684915 216.2274,86.568807 214.91489,87.55319 C 213.56199,88.567863 212.11957,90.671205 211.04255,91.748226 C 209.37809,93.412681 206.49628,93.867146 204.58865,95.297871 C 202.55171,96.825577 201.04972,97.86871 199.10283,99.815602 C 198.35827,100.56017 196.54567,101.10029 195.23049,101.42908 C 192.88171,102.01628 191.15323,103.09379 188.77659,103.68795 C 186.92209,104.15157 185.27426,104.01064 183.29078,104.01064 C 181.53945,104.01064 180.04751,104.33334 178.77305,104.33334 C 177.53143,104.33334 175.60823,103.88036 174.57801,103.36525 C 173.66757,102.91003 172.33377,101.7664 171.67376,101.10639 C 170.84878,100.2814 171.02837,98.146491 171.02837,96.911346 C 171.02837,95.528661 170.68816,93.937036 170.38297,92.716311 C 170.09566,91.567061 169.1717,90.775458 168.7695,89.166665 C 168.46334,87.942008 167.49311,86.642652 167.15602,85.294325 C 166.83517,84.010889 165.40591,82.439488 164.89716,81.421985 C 164.30401,80.235694 164.03236,78.655447 162.96099,77.226949 C 161.56361,75.36378 159.72972,74.64107 158.12056,73.031914 C 157.6903,72.601653 157.26004,72.171393 156.82978,71.741133 C 155.56828,70.479633 154.05327,69.652591 152.95744,68.191488 C 151.70286,66.518712 149.82583,66.359826 148.11702,65.932623 C 146.74678,65.590064 144.97382,65.630867 143.59929,65.287233 C 141.95896,64.877152 140.17725,65.384777 139.08156,65.932623 C 138.07341,66.436694 136.30125,66.617761 134.88652,66.900708 z "
       id="path3924" />
    <path
       style="fill:url(#linearGradient4000);fill-opacity:1;fill-rule:evenodd;stroke:#000000;stroke-width:1px;stroke-linecap:butt;stroke-linejoin:miter;stroke-opacity:1"
       d="M 127.78723,183.07092 C 125.17006,184.37951 129.88775,177.56712 130.36879,174.68085 C 130.90588,171.45837 129.92664,166.9602 128.75532,164.03191 C 127.35645,160.53475 127.31063,156.7092 125.85106,153.06028 C 125.67241,152.61364 125.4208,152.19976 125.20567,151.7695 C 124.00115,149.36045 122.25863,147.1662 121.01064,144.67021 C 119.74133,142.1316 117.86011,139.50142 116.17021,137.24823 C 114.70094,135.28919 113.75346,133.54069 111.97518,131.76241 C 110.34761,130.13484 108.55258,128.66251 106.81206,126.92199 C 105.1908,125.30073 104.19875,123.50988 102.29433,122.08156 C 99.721457,120.15191 97.504837,118.39603 94.549646,116.91844 C 92.240429,115.76383 89.593223,114.95327 87.12766,114.33688 C 83.748037,113.49197 80.329318,111.91123 77.124114,111.10993 C 75.782367,110.77449 73.903511,110.2241 72.283688,109.81915 C 71.853428,109.71158 71.423168,109.60402 70.992908,109.49645 C 69.706412,109.17483 68.52497,110.24638 67.443263,110.78723 C 66.612117,111.20281 65.517446,112.06766 64.861702,112.7234 C 63.416646,114.16846 62.635477,113.98154 61.312057,115.30496 C 60.009338,116.60768 59.192355,117.74736 57.762411,119.1773 C 55.24081,121.69891 57.624468,120.79078 60.021277,120.79078 C 63.466776,120.79078 66.492009,121.63989 69.379433,123.37234 C 72.496319,125.24247 75.952581,126.34814 79.060284,128.21277 C 82.423165,130.23049 85.92143,131.32064 89.386525,133.05319 C 92.914353,134.8171 95.645401,136.53724 98.744681,138.8617 C 100.89017,140.47082 102.96929,142.44092 104.87589,144.34752 C 107.35636,146.82799 110.45022,149.04228 111.97518,152.0922 C 113.11943,154.38071 113.62651,156.76137 114.23404,159.19149 C 114.85294,161.66707 115.55318,163.94146 116.49291,166.29078 C 117.66855,169.2299 117.47034,173.43681 118.10638,176.61702 C 118.8214,180.19212 119.01569,183.74512 119.71986,187.26596 C 120.13339,189.33363 119.22273,192.15873 118.75177,194.04255 C 118.64293,194.47793 119.50165,191.57472 120.04255,190.49291 C 121.01409,188.54984 121.83815,186.43845 123.2695,185.00709 C 124.18191,184.09468 125.04776,182.20582 125.85106,181.13475 C 126.40625,180.3945 127.45564,180.17557 128.10993,179.52128"
       id="path3926" />
    <path
       style="fill:url(#linearGradient3998);fill-opacity:1;fill-rule:evenodd;stroke:#000000;stroke-width:1.04630363px;stroke-linecap:butt;stroke-linejoin:miter;stroke-opacity:1"
       d="M 44.031572,127.98131 C 44.139466,127.86174 39.773616,133.09525 38.801107,138.05327 C 37.65621,143.89013 39.626198,138.49802 41.377665,135.55461 C 43.606375,131.80917 46.12587,127.79878 48.934086,124.68707 C 50.587782,122.85467 53.572891,126.38601 55.834601,127.37505 C 59.163855,128.8309 60.59555,130.78973 64.187986,132.01665 C 67.095316,133.00959 70.97094,133.89318 73.501084,135.59484 C 76.647834,137.7112 79.969857,139.82251 82.63288,142.22474 C 84.848929,144.22378 86.933502,146.33778 89.352094,147.96442 C 91.906628,149.68249 94.855981,152.98451 96.832393,155.35523 C 99.805872,158.92195 102.23587,162.25151 104.82317,166.10028 C 105.18928,166.64489 105.55538,167.1895 105.92149,167.7341 C 108.22759,171.16457 110.74949,176.14969 110.96383,180.32081 C 111.12994,183.5532 112.91136,187.53978 113.86153,190.65137 C 113.99703,191.09513 114.13256,191.5389 114.26805,191.98267 C 115.07652,194.63022 115.20921,197.13807 115.35832,200.03975 C 115.44718,201.76896 114.17758,203.48622 113.54285,204.18954 C 111.94988,205.95467 110.2715,207.81443 108.42438,209.86117 C 107.03675,211.39876 105.60254,212.98797 104.58554,214.11489 C 103.35966,215.47325 100.02128,217.03934 98.705987,218.13537 C 98.542042,218.27199 100.91838,214.20857 102.38891,210.84727 C 104.00116,207.16198 103.96509,203.77474 104.53233,199.91973 C 105.0205,196.60218 103.79481,194.11 101.41869,191.96658 C 99.240435,190.00163 96.349286,186.72945 94.258294,184.22129 C 92.041846,181.56264 90.652739,178.37856 87.772357,176.44135 C 85.601138,174.98108 83.191383,170.48885 81.269094,168.32426 C 78.370897,165.06075 75.992134,162.59947 72.707806,159.63679 C 69.524045,156.76481 66.631186,154.35153 63.809286,150.96663 C 61.896802,148.67259 59.736687,146.00674 57.712555,144.18084 C 56.226839,142.84061 53.289021,142.81291 51.538474,142.46969 C 50.79797,142.32452 47.762481,143.45102 46.869239,143.72366 C 45.417582,144.16675 43.335567,143.90516 41.810798,143.98348 C 39.520934,144.1011 38.884728,142.7992 37.945347,141.13962 C 37.102574,139.65072 36.952756,139.01078 36.388525,137.16306 C 36.314453,136.92049 38.795627,133.7831 39.233011,133.29846 C 40.422981,131.97988 42.546994,130.80057 43.461065,130.03888 C 44.672631,129.02927 45.310974,130.75688 44.031572,127.98131 z "
       id="path3928" />
    <path
       style="fill:url(#linearGradient3996);fill-opacity:1;fill-rule:evenodd;stroke:#000000;stroke-width:1px;stroke-linecap:butt;stroke-linejoin:miter;stroke-opacity:1"
       d="M 31.595689,156.12563 C 32.936497,154.56827 28.587248,159.20056 28.084465,161.19313 C 27.530551,163.38833 27.661341,164.57106 28.808987,165.98988 C 28.932455,166.14253 34.353924,163.11838 35.711181,162.81989 C 39.270668,162.03707 44.644316,163.65698 47.53573,165.50588 C 51.866363,168.27507 56.604478,169.60383 59.908265,173.68827 C 63.243386,177.81145 65.971707,181.24817 67.931308,186.13129 C 69.437382,189.88426 70.488382,193.25122 71.372044,197.26923 C 71.954002,199.91539 72.108748,202.70416 72.159365,205.35625 C 72.219034,208.48259 73.21448,210.72441 72.700834,213.82774 C 72.279907,216.3709 72.089042,217.50974 71.042677,219.80933 C 70.217712,221.62234 69.689397,222.7601 68.584168,223.65409 C 66.66214,225.20876 70.628563,222.81229 71.597176,222.33064 C 73.268934,221.49932 75.229136,221.66088 76.885637,220.83716 C 78.845719,219.86248 80.762016,217.84003 82.565092,216.61445 C 84.375206,215.38407 84.352811,209.71961 83.9146,207.72707 C 83.049574,203.7938 83.133741,199.66942 82.22622,195.54293 C 81.255737,191.13015 80.202853,187.36715 78.508234,183.14434 C 77.029516,179.45953 74.564493,176.09237 72.930669,172.80675 C 71.358388,169.6449 64.001866,165.20138 60.911212,163.22508 C 57.444085,161.00805 54.534848,158.60607 51.160695,156.44848 C 48.849508,154.97061 45.315636,154.40274 42.765028,154.33002 C 40.447597,154.26395 38.713273,154.05792 36.745528,154.00183 C 34.864467,153.94821 33.737608,155.65456 31.595689,156.12563 z "
       id="path3930" />
    <path
       style="fill:url(#linearGradient3994);fill-opacity:1;fill-rule:evenodd;stroke:#000000;stroke-width:1px;stroke-linecap:butt;stroke-linejoin:miter;stroke-opacity:1"
       d="M 21.084011,177.18091 C 20.996242,177.17666 21.983418,172.34561 21.084011,177.18091 C 20.65923,179.46458 20.94565,182.56534 21.900835,184.58599 C 22.822816,186.53641 22.286394,186.03803 24.620457,186.67659 C 26.39462,187.16197 29.357749,191.36559 30.437907,192.75664 C 30.732938,193.13659 31.027969,193.51654 31.323,193.89649 C 33.464575,196.65447 37.281196,198.48475 39.67097,201.11771 C 42.541874,204.28075 44.623798,205.06273 46.246134,209.35008 C 47.364244,212.30491 46.385534,214.56286 46.23959,217.57722 C 46.155602,219.31189 45.676676,220.72854 45.223192,222.38613 C 44.603868,224.64988 44.949949,223.94004 46.86731,224.03286 C 48.69812,224.12151 50.337619,223.18225 52.310484,223.27777 C 54.115978,223.36519 55.673911,222.85861 56.678152,222.07881 C 57.599572,221.36333 56.24315,213.28677 55.990015,212.01583 C 55.102307,207.55886 55.128045,202.73208 54.228993,198.21815 C 53.500596,194.56103 51.317925,192.48946 48.666299,190.11315 C 45.855044,187.59379 43.286825,184.36182 41.015629,181.43692 C 39.070237,178.93159 37.081926,177.16362 34.565222,175.48293 C 32.705016,174.24065 31.157214,173.05439 29.378112,172.56766 C 27.66781,172.09975 25.657161,172.3355 24.504863,172.88021 C 23.228062,173.48376 23.406761,175.25335 22.982884,176.80271 C 22.59919,178.20519 23.064082,177.72263 21.084011,177.18091 z "
       id="path3932" />
    <path
       style="fill:url(#linearGradient4008);fill-opacity:1;fill-rule:evenodd;stroke:#000000;stroke-width:1px;stroke-linecap:butt;stroke-linejoin:miter;stroke-opacity:1"
       d="M 32.914894,223.7305 C 33.237589,223.30024 33.642456,222.92077 33.882979,222.43972 C 34.818347,220.56899 34.609676,218.46066 33.237589,216.63121 C 31.408751,214.19276 30.411057,211.57172 28.397163,208.88653 C 27.519338,207.7161 23.969693,207.4754 24.847518,206.30497 C 25.170213,205.87471 26.138298,204.58393 25.815603,205.01419 C 25.492908,205.44445 24.606995,206.78601 24.847518,206.30497 C 24.558891,206.68981 24.417258,205.44445 24.202128,205.01419 C 24.194113,204.99816 24.229573,207.48597 23.556738,210.17731 C 23.236701,211.45746 22.911348,212.95965 22.911348,214.69504 C 22.911348,216.36638 22.981984,217.96214 22.588653,219.53547 C 22.117203,221.42126 20.26182,223.54374 19.361702,225.34398 C 18.470611,227.12616 17.916798,228.23378 17.102837,229.86171 C 16.228389,231.6106 15.622605,232.55569 15.166667,234.37944 C 14.773426,235.9524 13.994528,237.36911 13.230497,238.89717 C 12.176277,241.00561 11.669983,242.71655 10.326241,244.06029 C 10.276298,244.11023 13.320189,242.75748 14.521277,241.15603 C 16.649259,238.31872 18.551917,235.72908 20.329787,232.76596 C 21.827983,230.26897 23.140577,228.64324 24.202128,225.98937 C 24.801186,224.49172 27.293342,223.11904 28.719858,222.76242 C 30.240282,222.38231 31.594746,222.12437 32.914894,221.79433 C 34.362627,221.4324 34.143111,219.08764 33.560284,217.92199 C 32.627675,216.05677 31.759045,214.07017 30.010639,212.75887 C 28.031997,211.27489 27.448403,209.70776 25.492908,208.24114 C 23.341299,206.62743 22.802862,205.14841 20.975177,204.69149 C 20.645183,204.60899 21.190308,205.33688 21.297873,205.65958"
       id="path3934" />
    <path
       style="fill:url(#linearGradient4055);fill-opacity:1.0;fill-rule:evenodd;stroke:#000000;stroke-width:1px;stroke-linecap:butt;stroke-linejoin:miter;stroke-opacity:1"
       d="M 118.42908,74.645389 C 116.42451,74.144249 121.80028,71.809527 122.30142,69.804964 C 124.26668,61.943917 125.85106,54.371904 125.85106,46.248226 C 125.85106,39.445861 111.63647,29.390732 106.48936,25.273049 C 99.570455,19.737925 90.404154,17.379406 81.96454,15.269502 C 78.790337,14.475952 71.678126,12.577397 69.379433,14.301417 C 67.124885,15.992328 62.714082,15.831459 58.730497,18.819148 C 54.408385,22.060732 51.050799,21.077458 47.43617,25.595744 C 44.440355,29.340512 41.426168,32.896526 38.078014,36.24468 C 36.048765,38.273929 32.407814,43.159543 31.301419,45.925531 C 28.503278,52.920883 27.612272,60.634213 24.847518,67.546098 C 21.969662,74.740737 23.345656,79.510107 24.524823,86.585106 C 25.25012,90.936887 30.294403,95.258941 33.237589,98.202127 C 36.796733,101.76127 42.766835,103.5645 47.43617,102.39716 C 52.42634,101.14962 56.930239,100.72932 61.634752,98.84752 C 65.532922,97.288249 69.318869,96.173217 72.929078,94.007092 C 76.154486,92.071847 79.08879,90.369646 82.60993,89.489361 C 85.784057,88.695829 90.928247,89.166666 94.226951,89.166666 C 96.912165,89.166666 99.266245,89.116948 101.64893,88.521276 C 103.18599,88.137013 104.62531,88.019203 106.48936,87.553191 C 108.13494,87.141794 109.66571,86.920452 111.00709,86.585106 C 112.10978,86.309435 113.11465,82.047304 113.58865,81.09929 C 114.458,79.360603 115.76588,78.035607 116.49291,76.58156 C 117.32332,74.920733 120.3179,74.783061 121.97872,75.613474 C 122.9544,76.101313 116.37099,80.333436 116.17021,80.4539 C 115.52482,80.841136 114.34099,80.911205 113.58865,81.09929"
       id="path3936" />
    <path
       style="fill:url(#linearGradient4052);fill-opacity:1;fill-rule:evenodd;stroke:#000000;stroke-width:1px;stroke-linecap:butt;stroke-linejoin:miter;stroke-opacity:1"
       d="M 112.62057,36.24468 C 112.33044,36.418756 116.49291,38.812545 116.49291,43.021275 C 116.49291,47.362512 116.71875,51.863188 113.91135,55.606382 C 110.56092,60.073621 112.38285,65.015114 111.65248,70.127659 C 111.1425,73.697542 110.65861,78.375785 111.97518,80.131205 C 112.12505,80.33104 111.93409,75.98603 108.42553,73.354609 C 104.88541,70.699519 107.62409,60.10291 108.42553,56.897162 C 110.04328,50.426192 106.96609,44.576276 106.16667,38.18085 C 105.60127,33.657669 101.36147,30.1487 98.744681,27.531914 C 96.988735,25.775968 101.04167,33.739358 101.64894,34.9539 C 104.18192,40.019856 100.66814,41.536557 98.421986,45.280141 C 95.888166,49.503175 96.311541,54.715859 95.517731,59.478722 C 95.129294,61.809341 95.820764,67.105432 94.872341,61.414893 C 94.069733,56.599248 94.820918,50.157832 95.517731,45.280141 C 96.079194,41.349897 94.928267,32.217422 93.58156,28.177304 C 92.419969,24.69253 88.360126,22.140188 85.514185,20.432623 C 83.079078,18.971559 88.165807,25.483235 89.06383,28.177304 C 90.858331,33.560806 87.755904,38.843386 84.223404,42.375885 C 80.978949,45.620341 83.578014,38.940769 83.578014,35.59929 C 83.578014,28.855723 82.678623,25.791438 76.478723,22.691488 C 74.874225,21.889239 74.972451,20.538739 74.542553,18.819148 C 74.105016,17.069 76.229831,20.451073 73.574468,19.787233 C 71.955968,19.382608 70.565058,21.933712 70.024823,23.014183 C 69.346796,24.370238 67.128304,26.553513 66.152482,27.854609 C 65.067674,29.30102 63.797681,30.854801 62.280142,32.372339 C 60.659844,33.992637 59.145055,35.507426 57.439716,37.212765 C 56.025989,38.626492 55.901888,39.756502 53.890071,40.76241 C 52.098363,41.658264 50.929791,43.311105 49.695035,44.957446 C 48.248971,46.885531 46.686603,50.21966 45.822695,52.379432 C 44.931638,54.607075 42.994678,56.820923 41.304964,58.510637 C 39.457147,60.358454 38.002445,62.591301 36.464539,64.641843 C 35.034595,66.548435 34.073185,68.721442 33.560283,70.773049 C 33.070295,72.733001 33.904919,75.011966 34.528369,76.258864 C 35.462675,78.127476 40.860625,73.798948 41.304964,73.354609 C 43.785707,70.873866 47.451497,69.153443 50.66312,67.868793 C 53.635153,66.67998 57.118507,64.963424 59.698582,63.028368 C 61.763616,61.479592 66.612311,59.848215 67.765957,59.156027 C 67.898315,59.076613 67.156429,65.107955 62.280142,67.546098 C 57.798701,69.786819 52.905397,74.242778 50.340425,78.51773 C 47.536704,83.190599 45.045704,88.521276 39.046099,88.521276 C 36.918273,88.521276 35.305078,85.234269 36.787234,88.198581 C 37.906739,90.437591 43.27139,90.903168 45.5,90.457446 C 50.218719,89.513702 54.200314,88.464208 58.407801,85.939715 C 63.381723,82.955363 66.132242,78.340305 70.347518,74.968084 C 72.236712,73.456729 76.431596,66.026879 75.187943,68.514183 C 73.536557,71.816956 72.387139,75.406573 70.670213,78.840425 C 68.769407,82.642036 64.0611,87.5491 60.666667,89.812056 C 58.54,91.229833 53.124138,93.391837 50.66312,94.007091 C 46.292589,95.099724 51.65884,95.943262 53.567376,95.943262 C 56.996277,95.943262 60.241013,93.684396 63.893617,93.684396 C 67.07867,93.684396 71.940807,89.436933 74.542553,87.875886 C 78.32973,85.60358 80.796513,83.235401 83.900709,80.131205 C 84.330969,79.700945 84.761229,79.270685 85.191489,78.840425 C 86.322202,77.709712 87.287727,76.421492 88.41844,75.290779 C 88.501233,75.207986 86.830102,78.591778 84.223404,82.067375 C 82.098,84.901247 79.99345,87.300333 78.414894,90.457446 C 78.299519,90.688196 82.431512,89.467333 86.159575,87.230496 C 88.6449,85.7393 90.464056,83.464216 92.613475,81.74468 C 94.619039,80.140229 96.712767,80.848226 98.744681,82.067375 C 99.916721,82.770599 101.8263,82.712765 103.58511,82.712765 C 105.52595,82.712765 106.29513,83.132576 107.78014,82.39007 C 109.24398,81.658151 109.78972,81.108982 111.00709,79.485815 C 112.05041,78.094726 112.34714,77.128416 113.26596,75.290779 C 114.3878,73.047109 115.20213,69.680136 115.20213,67.223403 C 115.20213,63.745452 115.66606,59.518947 117.1383,56.574467 C 118.09063,54.669817 117.78369,48.944672 117.78369,47.539006 C 117.78369,45.064616 116.84609,42.759544 115.84752,40.76241 C 115.059,39.185369 113.71875,37.617404 112.62057,36.24468 z "
       id="path3938" />
    <path
       style="fill:url(#linearGradient4049);fill-opacity:1;fill-rule:evenodd;stroke:#000000;stroke-width:1px;stroke-linecap:butt;stroke-linejoin:miter;stroke-opacity:1"
       d="M 71.638298,26.241134 C 70.719262,24.403062 75.43031,28.743745 75.833333,30.758864 C 76.65149,34.849647 78.147186,38.173621 77.446809,42.375885 C 77.444188,42.391607 78.331647,38.7327 77.446809,34.308509 C 76.89517,31.550315 71.033219,22.005581 71.960993,28.499999 C 72.301478,30.883393 71.631539,34.322026 70.670213,36.24468 C 69.754744,38.075617 69.537403,41.098614 69.056738,43.021275 C 68.883484,43.714291 70.710712,43.041525 71.960993,43.666666 C 73.75016,44.561249 75.314087,45.532429 76.156028,47.216311 C 76.942247,48.788748 78.058912,50.053992 78.737589,51.411346 C 80.308645,54.553459 81.255887,57.226244 81.964539,60.769503 C 82.302721,62.460414 81.641844,64.208225 81.641844,65.932623 C 81.641844,67.735741 85.055683,63.881828 86.804965,64.319148 C 89.142713,64.903585 90.792086,67.015489 92.29078,68.514183 C 93.889363,70.112766 96.091976,71.347294 97.776596,73.031914 C 99.563733,74.819051 100.21386,75.860086 100.68085,78.195035 C 101.04116,79.996555 101.29646,81.12907 102.61702,79.80851 C 103.22099,79.204536 106.4769,79.169352 107.13475,78.840425 C 109.15367,77.830967 109.59723,78.729979 106.16667,77.87234 C 104.83546,77.539538 103.05267,75.081035 101.97163,73.999999 C 99.801178,71.829545 99.521128,69.33854 97.131206,67.546098 C 95.818935,66.561895 93.785909,65.066712 92.29078,64.319148 C 90.439834,63.393675 89.399594,61.666716 87.77305,60.446808 C 86.736846,59.669655 85.05922,60.190247 83.900709,60.769503 C 82.075271,61.682222 85.83688,57.001894 85.83688,54.960992 C 85.83688,52.619698 82.151393,49.339335 80.673759,47.861701 C 79.533258,46.7212 78.898506,45.441058 78.092199,44.634751 C 76.834943,43.377495 77.73949,42.173245 78.092199,40.76241 C 78.618162,38.658555 79.49439,36.444425 80.028369,34.308509 C 80.435123,32.681492 79.152282,30.528167 78.092199,29.468084 C 76.557371,27.933256 75.908173,27.389276 73.897163,26.886524 C 73.263661,26.728148 72.372798,26.424758 71.638298,26.241134 z "
       id="path3940" />
    <path
       style="fill:url(#linearGradient3960);fill-opacity:1;fill-rule:evenodd;stroke:#000000;stroke-width:1px;stroke-linecap:butt;stroke-linejoin:miter;stroke-opacity:1"
       d="M 182.45636,51.564586 C 179.83919,50.910294 188.11083,51.00352 190.52374,52.209976 C 192.74082,53.318517 194.5598,56.408181 196.00955,58.341182 C 198.20148,61.26375 198.46964,61.811086 199.88189,58.986572 C 201.21203,56.326305 202.68416,53.908697 203.43154,50.919196 C 204.12517,48.144651 201.54837,42.676057 199.88189,40.592955 C 197.36731,37.44972 192.97353,35.525297 189.55565,33.816359 C 186.80504,32.441055 184.72062,29.298628 181.16558,29.298628 C 176.54046,29.298628 176.05702,28.141914 171.80743,30.266713 C 169.96313,31.188863 168.10101,33.005043 166.6443,34.461749 C 164.84632,36.259729 164.22258,39.471103 163.74005,41.883735 C 163.17199,44.724047 163.09466,47.617947 163.09466,50.596501 C 163.09466,53.585145 162.89975,54.566298 165.03083,53.500756 C 167.32155,52.355396 168.35844,51.887281 171.16203,51.887281 C 173.78491,51.887281 176.08223,52.532671 178.58402,52.532671"
       id="path3942"
       sodipodi:nodetypes="csssssssssssssc" />
    <path
       style="fill:url(#linearGradient3962);fill-opacity:1;fill-rule:evenodd;stroke:#000000;stroke-width:1px;stroke-linecap:butt;stroke-linejoin:miter;stroke-opacity:1"
       d="M 168.37186,57.298157 C 171.61517,56.487329 173.9562,55.684681 177.40732,55.684681 C 180.48705,55.684681 183.05133,56.61164 185.79739,57.298157 C 188.46248,57.964429 191.95406,60.786225 194.18746,62.461277 C 196.15723,63.938605 197.65075,65.838203 198.70519,67.947093 C 199.44465,69.426008 199.4941,70.92266 199.02789,72.787518 C 198.41398,75.243134 197.66083,77.610377 197.09172,79.886809 C 196.56249,82.003727 194.75027,84.487124 193.21938,86.018018 C 191.28067,87.956718 188.4916,89.511338 186.44278,90.535748 C 184.83898,91.337648 179.33607,90.693378 177.73002,89.890358 C 174.25427,88.152478 173.08633,89.077028 170.30803,85.372628 C 169.07303,83.725959 167.84532,81.658753 166.75838,80.209504 C 165.00148,77.866962 163.90079,74.356298 162.88604,71.819433 C 161.67272,68.786115 162.59313,65.423467 164.17682,62.783972"
       id="path3944"
       sodipodi:nodetypes="cssssssssssssc" />
    <path
       style="fill:#191400;fill-opacity:1;fill-rule:evenodd;stroke:#000000;stroke-width:1px;stroke-linecap:butt;stroke-linejoin:miter;stroke-opacity:1"
       d="M 161.67022,127.56738 C 161.67022,126.72307 163.60639,130.95314 163.60639,134.98936 C 163.60639,139.8528 161.17625,145.05244 160.37944,149.83333 C 159.60952,154.45286 158.90181,159.29351 157.79788,163.70922 C 156.85798,167.46882 155.03622,171.4201 153.60284,175.00355 C 152.3742,178.07515 151.0743,180.41867 149.08511,183.07092 C 147.75429,184.84535 146.07693,186.72449 144.56738,188.23404 C 143.11753,189.6839 141.69851,191.95164 140.37235,193.71986 C 138.78661,195.83417 136.52709,197.88781 134.56384,199.85106 C 133.48816,200.92674 129.9885,205.71717 132.95036,202.75532 C 135.44317,200.26251 135.30403,196.7572 136.8227,193.71986 C 138.5963,190.17266 140.00181,186.14654 142.30852,183.07092 C 144.92356,179.5842 145.40359,174.74913 148.11703,171.13121 C 150.72259,167.65711 152.0129,162.52096 153.60284,158.5461 C 155.20563,154.53912 156.30737,149.8639 157.15249,145.6383 C 157.82764,142.26255 158.7846,138.76851 159.41135,135.63475 C 159.73622,134.01044 157.86431,133.08641 156.5071,132.4078 C 155.12755,131.71803 154.24823,129.98394 154.24823,128.21277 C 154.24823,126.47432 155.71265,125.45757 156.82979,124.34042 C 158.7926,122.37762 161.00975,126.46659 161.67022,127.56738"
       id="path3948" />
    <path
       style="fill:#191400;fill-rule:evenodd;stroke:#000000;stroke-width:1px;stroke-linecap:butt;stroke-linejoin:miter;stroke-opacity:1;fill-opacity:1"
       d="M 123.2695,204.69149 C 124.85603,203.10496 125.91414,196.37182 126.49645,194.04255 C 127.49762,190.03787 131.44223,185.44178 133.27305,181.78014 C 135.46854,177.38917 138.20445,173.02332 140.69504,168.87234 C 142.97622,165.07037 144.5326,160.08516 146.18085,155.96454 C 147.96277,151.50973 148.11702,145.85206 148.11702,141.12057 C 148.11702,138.11216 148.59645,135.71312 145.85816,134.34397 C 143.74947,133.28962 142.1102,133.42517 140.69504,135.31206 C 139.40382,137.03368 139.08156,140.31567 139.08156,142.41135 C 139.08156,143.46872 140.69504,145.37098 140.69504,147.25177 C 140.69504,149.97202 140.89399,152.06553 140.37234,154.67376 C 139.78654,157.60277 138.88995,160.63861 137.79078,163.38652 C 136.67153,166.18466 135.76299,168.68503 135.20922,171.4539 C 134.55677,174.71615 133.75245,177.92635 132.95036,181.13475 C 132.29283,183.76487 131.18299,185.77653 130.69149,188.23404 C 130.30916,190.1457 128.62625,191.33187 128.10993,193.39716 C 127.77018,194.75616 126.4857,196.64563 125.85106,197.91489 C 125.03634,199.54434 124.03924,200.64446 123.5922,202.43262 C 123.28085,203.67803 123.07565,205.27305 122.62411,206.62766"
       id="path3950" />
    <path
       style="fill:url(#linearGradient4070);fill-opacity:1.0;fill-rule:evenodd;stroke:#000000;stroke-width:0.99730831px;stroke-linecap:butt;stroke-linejoin:miter;stroke-opacity:1"
       d="M 176.75615,108.11666 C 177.50632,110.01689 179.17002,104.45403 181.11047,103.70867 C 188.72011,100.78563 196.08837,98.272436 204.20498,97.241401 C 211.00143,96.378064 222.81677,109.02765 227.57141,113.54758 C 233.96276,119.6234 237.45995,128.30412 240.61828,136.30448 C 241.80617,139.31348 244.58815,146.04021 243.1517,148.51101 C 241.74283,150.93435 242.45247,155.23511 239.96312,159.51695 C 237.26224,164.16265 238.66249,167.32724 234.59797,171.44186 C 231.22928,174.85208 228.05147,178.25635 225.12289,181.9614 C 223.34793,184.20697 218.91967,188.39401 216.29378,189.82898 C 209.65273,193.4581 202.05699,195.30995 195.49518,198.89578 C 188.66494,202.62827 183.72848,201.88556 176.5129,201.62828 C 172.07465,201.47004 167.1286,197.0768 163.8217,194.56695 C 159.82273,191.53184 157.27811,185.9119 157.86335,181.18929 C 158.48879,176.14218 158.34824,171.67644 159.64294,166.82868 C 160.71573,162.81182 161.35866,158.96128 163.07361,155.14951 C 164.60579,151.74402 165.94134,148.6533 166.38267,145.09199 C 166.7805,141.88164 165.6699,136.90172 165.25938,133.67005 C 164.92521,131.03939 164.68192,128.72683 164.98058,126.31695 C 165.17322,124.76236 165.1118,123.33733 165.34543,121.45201 C 165.55168,119.78765 165.58234,118.25989 165.75047,116.9032 C 165.88867,115.78793 170.02204,114.26254 170.91024,113.67785 C 172.53922,112.60549 173.70032,111.15602 175.06261,110.25922 C 176.61865,109.23489 176.38354,106.28369 175.34717,104.76201 C 174.73834,103.86806 171.32918,110.85484 171.23381,111.06683 C 170.92723,111.74826 171.00454,112.91693 170.91024,113.67785"
       id="path4010" />
    <path
       style="fill:url(#linearGradient4067);fill-opacity:1;fill-rule:evenodd;stroke:#000000;stroke-width:0.99730831px;stroke-linecap:butt;stroke-linejoin:miter;stroke-opacity:1"
       d="M 218.09285,112.7524 C 217.95504,113.05872 215.04533,109.28464 210.84026,109.8188 C 206.5028,110.36979 201.97792,110.71974 198.58736,113.94518 C 194.54096,117.79451 189.37703,116.63675 184.35982,118.00115 C 180.85651,118.95385 176.24256,120.02166 174.32482,118.95463 C 174.10651,118.83317 178.4715,118.4688 181.53727,121.57209 C 184.6306,124.70331 194.87718,120.67538 197.9804,119.48335 C 204.24442,117.0772 210.4722,119.34941 216.96153,119.3209 C 221.55114,119.30074 225.58469,123.00904 228.52486,125.24055 C 230.49779,126.73796 222.03695,123.77807 220.74789,123.33729 C 215.37114,121.49873 214.29303,125.13361 210.83223,127.80924 C 206.92819,130.82757 201.66734,131.07437 197.00741,132.45654 C 194.72716,133.13288 189.34963,133.12763 195.15325,133.33455 C 200.06459,133.50966 206.40692,131.95621 211.19365,130.65449 C 215.05061,129.60562 224.31836,129.57408 228.52256,130.38067 C 232.14886,131.07638 235.20421,134.72981 237.26446,137.3012 C 239.02729,139.50139 231.88826,135.34446 229.08478,134.80662 C 223.48264,133.73184 218.59074,137.44168 215.50092,141.35074 C 212.66305,144.94105 219.01336,141.54704 222.35194,141.12294 C 229.08964,140.26707 232.26318,140.75928 236.13199,146.43977 C 237.13321,147.90985 238.47032,147.64222 240.24191,147.84513 C 242.04499,148.05165 238.40143,146.39926 239.39515,148.9164 C 240.00083,150.45067 237.62504,152.1371 236.61275,152.80349 C 235.34225,153.63986 233.43696,156.09036 232.25842,157.21148 C 230.94828,158.45783 229.55389,159.89922 228.22652,161.57853 C 226.80929,163.37154 225.48432,165.04781 223.9927,166.93494 C 222.75613,168.49936 221.64253,168.76436 220.88787,170.86297 C 220.21577,172.73197 218.7098,174.08657 217.21855,175.50519 C 215.47209,177.16657 212.33529,179.12036 210.28491,180.24083 C 208.1701,181.3965 206.19922,183.57508 204.72126,185.44493 C 203.105,187.48971 201.05513,189.19825 199.19776,190.96514 C 197.47077,192.60802 195.4193,193.82569 193.43331,194.58856 C 191.53604,195.31734 189.15519,194.7889 187.83179,194.33638 C 185.84853,193.65822 189.50153,187.82058 189.89019,187.32888 C 192.06006,184.58369 193.32279,180.77402 194.20665,177.46461 C 195.02456,174.40209 196.30614,170.77165 197.91842,167.99841 C 199.20887,165.77877 200.23543,160.82154 200.78344,159.60348 C 200.84632,159.46374 194.91255,160.95603 193.08336,166.04268 C 191.40229,170.71745 187.55916,176.07687 183.60713,179.1323 C 179.28724,182.47211 174.2712,185.58905 175.01783,191.46675 C 175.28263,193.55135 178.76753,194.71459 175.62134,193.63877 C 173.24497,192.82618 172.11217,187.62962 172.28018,185.38972 C 172.63587,180.64711 173.18895,176.61321 175.18764,172.17081 C 177.55041,166.91918 181.81916,163.63882 184.66388,159.0812 C 185.9388,157.03857 192.84015,151.98595 190.50979,153.52002 C 187.4154,155.55702 183.97194,157.13867 180.75475,159.25653 C 177.19299,161.6012 172.87613,166.83663 171.03756,170.4493 C 169.88568,172.7127 168.39954,178.29291 168.09108,180.78202 C 167.5433,185.20242 166.03268,180.05226 165.79517,178.18251 C 165.36845,174.82327 167.22156,171.35778 166.767,167.77939 C 166.37064,164.65905 170.00933,159.35662 171.24524,156.60962 C 173.04426,152.611 175.10341,149.89378 177.81859,146.45868 C 178.19494,145.98255 178.57128,145.50643 178.94762,145.0303 C 179.93663,143.77906 181.10358,142.66965 182.09259,141.41841 C 182.16501,141.32679 178.99213,143.39343 175.84395,146.38827 C 173.27704,148.83016 171.14195,151.19643 168.18403,153.14361 C 167.96783,153.28592 168.67342,149.08294 170.44437,145.14673 C 171.62498,142.52264 173.6717,140.45171 175.12225,138.12772 C 176.47571,135.95927 175.50778,133.99793 174.03683,132.16205 C 173.18835,131.10307 173.0085,129.22495 172.78962,127.50187 C 172.54809,125.60047 172.03293,124.9002 172.58998,123.35113 C 173.13909,121.82414 173.61987,121.21979 175.09013,119.82114 C 176.35017,118.62246 177.27871,118.20913 179.0004,117.07574 C 181.10251,115.69193 184.36522,114.46683 186.81981,114.15503 C 190.29474,113.71361 194.45984,112.72269 197.21854,110.90665 C 199.00302,109.73195 204.76138,109.30603 206.16583,109.12763 C 208.63807,108.81358 211.05781,109.43958 213.17747,110.16439 C 214.85127,110.73673 216.58466,111.85075 218.09285,112.7524 z "
       id="path4012" />
    <path
       style="fill:url(#linearGradient4064);fill-opacity:1;fill-rule:evenodd;stroke:#000000;stroke-width:0.99730831px;stroke-linecap:butt;stroke-linejoin:miter;stroke-opacity:1"
       d="M 233.18781,151.63235 C 235.13866,152.29943 230.21548,148.23502 228.15196,148.09594 C 223.96292,147.81359 220.45569,146.77016 216.34424,147.98964 C 216.32887,147.9942 219.87414,146.66039 224.4046,146.96575 C 227.22905,147.15612 237.49497,151.68757 230.89075,151.6029 C 228.46706,151.57183 225.11479,152.66458 223.31344,153.8504 C 221.59803,154.97964 218.60471,155.57624 216.74353,156.29115 C 216.07268,156.54884 216.51747,154.67335 215.73728,153.52782 C 214.62081,151.88854 213.45585,150.47965 211.66865,149.86853 C 209.99974,149.29785 208.59664,148.36446 207.15601,147.87184 C 203.82111,146.7315 201.03277,146.14272 197.4044,145.89817 C 195.67288,145.78147 194.00883,146.65075 192.28593,146.86961 C 190.48438,147.09845 193.9101,143.26485 193.25547,141.60662 C 192.38062,139.39053 190.06529,138.04272 188.3814,136.76468 C 186.58527,135.40147 185.07771,133.4003 183.1849,131.96371 C 181.17691,130.4397 180.05588,129.93491 177.66485,129.77375 C 175.82006,129.64941 174.65676,129.54303 175.81183,128.0817 C 176.34012,127.41334 175.97008,124.21912 176.21686,123.53289 C 176.97419,121.42687 176.02075,121.10643 177.30457,124.35844 C 177.80274,125.62036 180.48098,127.05489 181.6956,127.97677 C 184.13427,129.82766 186.65796,129.78586 188.74626,131.89974 C 189.89292,133.06043 191.63981,134.86239 192.57278,136.23226 C 193.72779,137.92814 195.58271,138.72806 197.00396,140.16672 C 197.90941,141.08325 197.59804,142.79285 197.16346,144.00134 C 196.4787,145.90553 200.68684,141.62634 202.72597,141.36731 C 205.06521,141.07016 208.80138,144.26444 210.46161,145.5245 C 211.74305,146.49708 213.10107,146.95647 214.00702,147.64406 C 215.41965,148.7162 216.51029,147.67719 217.87599,147.15259 C 219.91257,146.37029 222.01573,145.23086 224.08333,144.43664 C 225.65831,143.83167 227.96941,144.81514 229.1605,145.71914 C 230.885,147.02799 231.50929,147.59496 232.26188,149.5013 C 232.49895,150.10182 232.91294,150.93608 233.18781,151.63235 z "
       id="path4014" />
    <path
       style="fill:#fffef6;fill-opacity:0.84388182;fill-rule:evenodd;stroke:none;stroke-width:1px;stroke-linecap:butt;stroke-linejoin:miter;stroke-opacity:1"
       d="M 193.3167,63.718469 C 193.87138,64.433654 183.52332,59.493874 176.74616,62.519278 C 169.96901,65.544689 169.45663,82.361242 169.45663,82.361242 C 169.45663,82.361242 159.79081,60.487819 170.99487,58.80097 C 182.19897,57.11413 193.43282,63.364033 193.3167,63.718469 z "
       id="path4074" />
    <path
       style="fill:#fffef6;fill-opacity:0.84388182;fill-rule:evenodd;stroke:none;stroke-width:1px;stroke-linecap:butt;stroke-linejoin:miter;stroke-opacity:1"
       d="M 194.78923,38.314963 C 195.14088,39.045639 186.36249,32.971521 178.96084,34.62421 C 171.55922,36.276908 166.62126,51.320943 166.62126,51.320943 C 166.62126,51.320943 162.97725,30.124256 174.33876,30.373325 C 185.7003,30.622409 194.99592,38.014487 194.78923,38.314963 z "
       id="path4076" />
  </g>
</svg>
