<?xml version="1.0" encoding="UTF-8" standalone="no"?>
<!-- Created with Inkscape (http://www.inkscape.org/) -->
<svg
   xmlns:dc="http://purl.org/dc/elements/1.1/"
   xmlns:cc="http://web.resource.org/cc/"
   xmlns:rdf="http://www.w3.org/1999/02/22-rdf-syntax-ns#"
   xmlns:svg="http://www.w3.org/2000/svg"
   xmlns="http://www.w3.org/2000/svg"
   xmlns:sodipodi="http://sodipodi.sourceforge.net/DTD/sodipodi-0.dtd"
   xmlns:inkscape="http://www.inkscape.org/namespaces/inkscape"
   width="64px"
   height="64px"
   id="svg2160"
   sodipodi:version="0.32"
   inkscape:version="0.45.1"
   sodipodi:docbase="/home/developer/Desktop/onelaptop"
   sodipodi:docname="grid-kids-color.svg"
   inkscape:output_extension="org.inkscape.output.svg.inkscape">
  <defs
     id="defs2162" />
  <sodipodi:namedview
     id="base"
     pagecolor="#ffffff"
     bordercolor="#666666"
     borderopacity="1.0"
     inkscape:pageopacity="0.0"
     inkscape:pageshadow="2"
     inkscape:zoom="5.5"
     inkscape:cx="32"
     inkscape:cy="32"
     inkscape:current-layer="layer1"
     showgrid="true"
     inkscape:document-units="px"
     inkscape:grid-bbox="true"
     inkscape:window-width="872"
     inkscape:window-height="627"
     inkscape:window-x="1821"
     inkscape:window-y="473" />
  <metadata
     id="metadata2165">
    <rdf:RDF>
      <cc:Work
         rdf:about="">
        <dc:format>image/svg+xml</dc:format>
        <dc:type
           rdf:resource="http://purl.org/dc/dcmitype/StillImage" />
      </cc:Work>
    </rdf:RDF>
  </metadata>
  <g
     id="layer1"
     inkscape:label="Layer 1"
     inkscape:groupmode="layer">
    <g
       id="g3146"
       transform="matrix(0.3025573,1.5830095e-2,-1.8912006e-2,0.2532525,-6.5572073,-4.6388729)"
       style="fill:#030000;fill-opacity:1;stroke:#d27a7a;stroke-opacity:1">
      <path
         transform="matrix(1.2823401,0,0,1.0010962,5.435644,-2.2986373)"
         d="M 23.090909 23.636364 A 0.72727275 0.90909094 0 1 1  21.636363,23.636364 A 0.72727275 0.90909094 0 1 1  23.090909 23.636364 z"
         sodipodi:ry="0.90909094"
         sodipodi:rx="0.72727275"
         sodipodi:cy="23.636364"
         sodipodi:cx="22.363636"
         id="path2168"
         style="opacity:1;fill:#030000;fill-opacity:1;fill-rule:nonzero;stroke:#d27a7a;stroke-width:6.81899977;stroke-linejoin:round;stroke-miterlimit:4;stroke-dasharray:none;stroke-dashoffset:10.92;stroke-opacity:1"
         sodipodi:type="arc" />
      <rect
         transform="matrix(0.7566216,0.653853,-0.653853,0.7566216,0,0)"
         y="-7.5296335"
         x="48.820522"
         height="22"
         width="0.27272728"
         id="rect2170"
         style="opacity:1;fill:#030000;fill-opacity:1;fill-rule:nonzero;stroke:#d27a7a;stroke-width:6.81899977;stroke-linejoin:round;stroke-miterlimit:4;stroke-dasharray:none;stroke-dashoffset:10.92;stroke-opacity:1" />
      <rect
         transform="matrix(-0.678231,0.7348488,0.7348488,0.678231,0,0)"
         y="38.061306"
         x="1.8790452"
         height="22"
         width="0.27272728"
         id="rect2172"
         style="opacity:1;fill:#030000;fill-opacity:1;fill-rule:nonzero;stroke:#d27a7a;stroke-width:6.81899977;stroke-linejoin:round;stroke-miterlimit:4;stroke-dasharray:none;stroke-dashoffset:10.92;stroke-opacity:1" />
    </g>
    <g
       id="g3153"
       transform="matrix(0.3025573,1.5830095e-2,-1.8912006e-2,0.2532525,-6.5572073,3.4040847)"
       style="fill:#030000;fill-opacity:1;stroke:#7ad27e;stroke-opacity:1">
      <path
         transform="matrix(1.2823401,0,0,1.0010962,5.435644,-2.2986373)"
         d="M 23.090909 23.636364 A 0.72727275 0.90909094 0 1 1  21.636363,23.636364 A 0.72727275 0.90909094 0 1 1  23.090909 23.636364 z"
         sodipodi:ry="0.90909094"
         sodipodi:rx="0.72727275"
         sodipodi:cy="23.636364"
         sodipodi:cx="22.363636"
         id="path3155"
         style="opacity:1;fill:#030000;fill-opacity:1;fill-rule:nonzero;stroke:#7ad27e;stroke-width:6.81899977;stroke-linejoin:round;stroke-miterlimit:4;stroke-dasharray:none;stroke-dashoffset:10.92;stroke-opacity:1"
         sodipodi:type="arc" />
      <rect
         transform="matrix(0.7566216,0.653853,-0.653853,0.7566216,0,0)"
         y="-7.5296335"
         x="48.820522"
         height="22"
         width="0.27272728"
         id="rect3157"
         style="opacity:1;fill:#030000;fill-opacity:1;fill-rule:nonzero;stroke:#7ad27e;stroke-width:6.81899977;stroke-linejoin:round;stroke-miterlimit:4;stroke-dasharray:none;stroke-dashoffset:10.92;stroke-opacity:1" />
      <rect
         transform="matrix(-0.678231,0.7348488,0.7348488,0.678231,0,0)"
         y="38.341873"
         x="1.5856277"
         height="22"
         width="0.27272728"
         id="rect3159"
         style="opacity:1;fill:#030000;fill-opacity:1;fill-rule:nonzero;stroke:#7ad27e;stroke-width:6.81899977;stroke-linejoin:round;stroke-miterlimit:4;stroke-dasharray:none;stroke-dashoffset:10.92;stroke-opacity:1" />
    </g>
    <g
       id="g3161"
       transform="matrix(0.3025573,1.5830095e-2,-1.8912006e-2,0.2532525,-6.5572073,11.447044)"
       style="fill:#030000;fill-opacity:1;stroke:#3d60ec;stroke-opacity:1">
      <path
         transform="matrix(1.2823401,0,0,1.0010962,5.435644,-2.2986373)"
         d="M 23.090909 23.636364 A 0.72727275 0.90909094 0 1 1  21.636363,23.636364 A 0.72727275 0.90909094 0 1 1  23.090909 23.636364 z"
         sodipodi:ry="0.90909094"
         sodipodi:rx="0.72727275"
         sodipodi:cy="23.636364"
         sodipodi:cx="22.363636"
         id="path3163"
         style="opacity:1;fill:#030000;fill-opacity:1;fill-rule:nonzero;stroke:#3d60ec;stroke-width:6.81899977;stroke-linejoin:round;stroke-miterlimit:4;stroke-dasharray:none;stroke-dashoffset:10.92;stroke-opacity:1"
         sodipodi:type="arc" />
      <rect
         transform="matrix(0.7566216,0.653853,-0.653853,0.7566216,0,0)"
         y="-7.5296335"
         x="48.820522"
         height="22"
         width="0.27272728"
         id="rect3165"
         style="opacity:1;fill:#030000;fill-opacity:1;fill-rule:nonzero;stroke:#3d60ec;stroke-width:6.81899977;stroke-linejoin:round;stroke-miterlimit:4;stroke-dasharray:none;stroke-dashoffset:10.92;stroke-opacity:1" />
      <rect
         transform="matrix(-0.678231,0.7348488,0.7348488,0.678231,0,0)"
         y="38.341873"
         x="1.5856277"
         height="22"
         width="0.27272728"
         id="rect3167"
         style="opacity:1;fill:#030000;fill-opacity:1;fill-rule:nonzero;stroke:#3d60ec;stroke-width:6.81899977;stroke-linejoin:round;stroke-miterlimit:4;stroke-dasharray:none;stroke-dashoffset:10.92;stroke-opacity:1" />
    </g>
    <g
       id="g3203"
       transform="matrix(0.3025573,1.5830095e-2,-1.8912006e-2,0.2532525,-6.5572073,19.490001)"
       style="fill:#030000;fill-opacity:1;stroke:#d27a7a;stroke-opacity:1">
      <path
         transform="matrix(1.2823401,0,0,1.0010962,5.435644,-2.2986373)"
         d="M 23.090909 23.636364 A 0.72727275 0.90909094 0 1 1  21.636363,23.636364 A 0.72727275 0.90909094 0 1 1  23.090909 23.636364 z"
         sodipodi:ry="0.90909094"
         sodipodi:rx="0.72727275"
         sodipodi:cy="23.636364"
         sodipodi:cx="22.363636"
         id="path3205"
         style="opacity:1;fill:#030000;fill-opacity:1;fill-rule:nonzero;stroke:#d27a7a;stroke-width:6.81899977;stroke-linejoin:round;stroke-miterlimit:4;stroke-dasharray:none;stroke-dashoffset:10.92;stroke-opacity:1"
         sodipodi:type="arc" />
      <rect
         transform="matrix(0.7566216,0.653853,-0.653853,0.7566216,0,0)"
         y="-7.5296335"
         x="48.820522"
         height="22"
         width="0.27272728"
         id="rect3207"
         style="opacity:1;fill:#030000;fill-opacity:1;fill-rule:nonzero;stroke:#d27a7a;stroke-width:6.81899977;stroke-linejoin:round;stroke-miterlimit:4;stroke-dasharray:none;stroke-dashoffset:10.92;stroke-opacity:1" />
      <rect
         transform="matrix(-0.678231,0.7348488,0.7348488,0.678231,0,0)"
         y="38.061306"
         x="1.8790452"
         height="22"
         width="0.27272728"
         id="rect3209"
         style="opacity:1;fill:#030000;fill-opacity:1;fill-rule:nonzero;stroke:#d27a7a;stroke-width:6.81899977;stroke-linejoin:round;stroke-miterlimit:4;stroke-dasharray:none;stroke-dashoffset:10.92;stroke-opacity:1" />
    </g>
    <g
       id="g3211"
       transform="matrix(0.3025573,1.5830095e-2,-1.8912006e-2,0.2532525,-6.5572073,27.532957)"
       style="fill:#030000;fill-opacity:1;stroke:#7ad27e;stroke-opacity:1">
      <path
         transform="matrix(1.2823401,0,0,1.0010962,5.435644,-2.2986373)"
         d="M 23.090909 23.636364 A 0.72727275 0.90909094 0 1 1  21.636363,23.636364 A 0.72727275 0.90909094 0 1 1  23.090909 23.636364 z"
         sodipodi:ry="0.90909094"
         sodipodi:rx="0.72727275"
         sodipodi:cy="23.636364"
         sodipodi:cx="22.363636"
         id="path3213"
         style="opacity:1;fill:#030000;fill-opacity:1;fill-rule:nonzero;stroke:#7ad27e;stroke-width:6.81899977;stroke-linejoin:round;stroke-miterlimit:4;stroke-dasharray:none;stroke-dashoffset:10.92;stroke-opacity:1"
         sodipodi:type="arc" />
      <rect
         transform="matrix(0.7566216,0.653853,-0.653853,0.7566216,0,0)"
         y="-7.5296335"
         x="48.820522"
         height="22"
         width="0.27272728"
         id="rect3215"
         style="opacity:1;fill:#030000;fill-opacity:1;fill-rule:nonzero;stroke:#7ad27e;stroke-width:6.81899977;stroke-linejoin:round;stroke-miterlimit:4;stroke-dasharray:none;stroke-dashoffset:10.92;stroke-opacity:1" />
      <rect
         transform="matrix(-0.678231,0.7348488,0.7348488,0.678231,0,0)"
         y="38.341873"
         x="1.5856277"
         height="22"
         width="0.27272728"
         id="rect3217"
         style="opacity:1;fill:#030000;fill-opacity:1;fill-rule:nonzero;stroke:#7ad27e;stroke-width:6.81899977;stroke-linejoin:round;stroke-miterlimit:4;stroke-dasharray:none;stroke-dashoffset:10.92;stroke-opacity:1" />
    </g>
    <g
       id="g3219"
       transform="matrix(0.3025573,1.5830095e-2,-1.8912006e-2,0.2532525,-6.5572073,35.575915)"
       style="fill:#030000;fill-opacity:1;stroke:#3d60ec;stroke-opacity:1">
      <path
         transform="matrix(1.2823401,0,0,1.0010962,5.435644,-2.2986373)"
         d="M 23.090909 23.636364 A 0.72727275 0.90909094 0 1 1  21.636363,23.636364 A 0.72727275 0.90909094 0 1 1  23.090909 23.636364 z"
         sodipodi:ry="0.90909094"
         sodipodi:rx="0.72727275"
         sodipodi:cy="23.636364"
         sodipodi:cx="22.363636"
         id="path3221"
         style="opacity:1;fill:#030000;fill-opacity:1;fill-rule:nonzero;stroke:#3d60ec;stroke-width:6.81899977;stroke-linejoin:round;stroke-miterlimit:4;stroke-dasharray:none;stroke-dashoffset:10.92;stroke-opacity:1"
         sodipodi:type="arc" />
      <rect
         transform="matrix(0.7566216,0.653853,-0.653853,0.7566216,0,0)"
         y="-7.5296335"
         x="48.820522"
         height="22"
         width="0.27272728"
         id="rect3223"
         style="opacity:1;fill:#030000;fill-opacity:1;fill-rule:nonzero;stroke:#3d60ec;stroke-width:6.81899977;stroke-linejoin:round;stroke-miterlimit:4;stroke-dasharray:none;stroke-dashoffset:10.92;stroke-opacity:1" />
      <rect
         transform="matrix(-0.678231,0.7348488,0.7348488,0.678231,0,0)"
         y="38.341873"
         x="1.5856277"
         height="22"
         width="0.27272728"
         id="rect3225"
         style="opacity:1;fill:#030000;fill-opacity:1;fill-rule:nonzero;stroke:#3d60ec;stroke-width:6.81899977;stroke-linejoin:round;stroke-miterlimit:4;stroke-dasharray:none;stroke-dashoffset:10.92;stroke-opacity:1" />
    </g>
    <g
       id="g3229"
       transform="matrix(0.3025573,1.5830095e-2,-1.8912006e-2,0.2532525,-6.5572073,43.618873)"
       style="fill:#030000;fill-opacity:1;stroke:#d27a7a;stroke-opacity:1">
      <path
         transform="matrix(1.2823401,0,0,1.0010962,5.435644,-2.2986373)"
         d="M 23.090909 23.636364 A 0.72727275 0.90909094 0 1 1  21.636363,23.636364 A 0.72727275 0.90909094 0 1 1  23.090909 23.636364 z"
         sodipodi:ry="0.90909094"
         sodipodi:rx="0.72727275"
         sodipodi:cy="23.636364"
         sodipodi:cx="22.363636"
         id="path3231"
         style="opacity:1;fill:#030000;fill-opacity:1;fill-rule:nonzero;stroke:#d27a7a;stroke-width:6.81899977;stroke-linejoin:round;stroke-miterlimit:4;stroke-dasharray:none;stroke-dashoffset:10.92;stroke-opacity:1"
         sodipodi:type="arc" />
      <rect
         transform="matrix(0.7566216,0.653853,-0.653853,0.7566216,0,0)"
         y="-7.5296335"
         x="48.820522"
         height="22"
         width="0.27272728"
         id="rect3233"
         style="opacity:1;fill:#030000;fill-opacity:1;fill-rule:nonzero;stroke:#d27a7a;stroke-width:6.81899977;stroke-linejoin:round;stroke-miterlimit:4;stroke-dasharray:none;stroke-dashoffset:10.92;stroke-opacity:1" />
      <rect
         transform="matrix(-0.678231,0.7348488,0.7348488,0.678231,0,0)"
         y="38.061306"
         x="1.8790452"
         height="22"
         width="0.27272728"
         id="rect3235"
         style="opacity:1;fill:#030000;fill-opacity:1;fill-rule:nonzero;stroke:#d27a7a;stroke-width:6.81899977;stroke-linejoin:round;stroke-miterlimit:4;stroke-dasharray:none;stroke-dashoffset:10.92;stroke-opacity:1" />
    </g>
    <g
       id="g3237"
       transform="matrix(0.3025573,1.5830095e-2,-1.8912006e-2,0.2532525,-6.5572073,51.661831)"
       style="fill:#030000;fill-opacity:1;stroke:#7ad27e;stroke-opacity:1">
      <path
         transform="matrix(1.2823401,0,0,1.0010962,5.435644,-2.2986373)"
         d="M 23.090909 23.636364 A 0.72727275 0.90909094 0 1 1  21.636363,23.636364 A 0.72727275 0.90909094 0 1 1  23.090909 23.636364 z"
         sodipodi:ry="0.90909094"
         sodipodi:rx="0.72727275"
         sodipodi:cy="23.636364"
         sodipodi:cx="22.363636"
         id="path3239"
         style="opacity:1;fill:#030000;fill-opacity:1;fill-rule:nonzero;stroke:#7ad27e;stroke-width:6.81899977;stroke-linejoin:round;stroke-miterlimit:4;stroke-dasharray:none;stroke-dashoffset:10.92;stroke-opacity:1"
         sodipodi:type="arc" />
      <rect
         transform="matrix(0.7566216,0.653853,-0.653853,0.7566216,0,0)"
         y="-7.5296335"
         x="48.820522"
         height="22"
         width="0.27272728"
         id="rect3241"
         style="opacity:1;fill:#030000;fill-opacity:1;fill-rule:nonzero;stroke:#7ad27e;stroke-width:6.81899977;stroke-linejoin:round;stroke-miterlimit:4;stroke-dasharray:none;stroke-dashoffset:10.92;stroke-opacity:1" />
      <rect
         transform="matrix(-0.678231,0.7348488,0.7348488,0.678231,0,0)"
         y="38.341873"
         x="1.5856277"
         height="22"
         width="0.27272728"
         id="rect3243"
         style="opacity:1;fill:#030000;fill-opacity:1;fill-rule:nonzero;stroke:#7ad27e;stroke-width:6.81899977;stroke-linejoin:round;stroke-miterlimit:4;stroke-dasharray:none;stroke-dashoffset:10.92;stroke-opacity:1" />
    </g>
    <g
       id="g3289"
       transform="matrix(0.3025573,1.5830095e-2,-1.8912006e-2,0.2532525,50.759907,-4.6388733)"
       style="fill:#030000;fill-opacity:1;stroke:#d27a7a;stroke-opacity:1">
      <path
         transform="matrix(1.2823401,0,0,1.0010962,5.435644,-2.2986373)"
         d="M 23.090909 23.636364 A 0.72727275 0.90909094 0 1 1  21.636363,23.636364 A 0.72727275 0.90909094 0 1 1  23.090909 23.636364 z"
         sodipodi:ry="0.90909094"
         sodipodi:rx="0.72727275"
         sodipodi:cy="23.636364"
         sodipodi:cx="22.363636"
         id="path3291"
         style="opacity:1;fill:#030000;fill-opacity:1;fill-rule:nonzero;stroke:#d27a7a;stroke-width:6.81899977;stroke-linejoin:round;stroke-miterlimit:4;stroke-dasharray:none;stroke-dashoffset:10.92;stroke-opacity:1"
         sodipodi:type="arc" />
      <rect
         transform="matrix(0.7566216,0.653853,-0.653853,0.7566216,0,0)"
         y="-7.5296335"
         x="48.820522"
         height="22"
         width="0.27272728"
         id="rect3293"
         style="opacity:1;fill:#030000;fill-opacity:1;fill-rule:nonzero;stroke:#d27a7a;stroke-width:6.81899977;stroke-linejoin:round;stroke-miterlimit:4;stroke-dasharray:none;stroke-dashoffset:10.92;stroke-opacity:1" />
      <rect
         transform="matrix(-0.678231,0.7348488,0.7348488,0.678231,0,0)"
         y="38.061306"
         x="1.8790452"
         height="22"
         width="0.27272728"
         id="rect3295"
         style="opacity:1;fill:#030000;fill-opacity:1;fill-rule:nonzero;stroke:#d27a7a;stroke-width:6.81899977;stroke-linejoin:round;stroke-miterlimit:4;stroke-dasharray:none;stroke-dashoffset:10.92;stroke-opacity:1" />
    </g>
    <g
       id="g3297"
       transform="matrix(0.3025573,1.5830095e-2,-1.8912006e-2,0.2532525,50.759907,3.4040849)"
       style="fill:#030000;fill-opacity:1;stroke:#7ad27e;stroke-opacity:1">
      <path
         transform="matrix(1.2823401,0,0,1.0010962,5.435644,-2.2986373)"
         d="M 23.090909 23.636364 A 0.72727275 0.90909094 0 1 1  21.636363,23.636364 A 0.72727275 0.90909094 0 1 1  23.090909 23.636364 z"
         sodipodi:ry="0.90909094"
         sodipodi:rx="0.72727275"
         sodipodi:cy="23.636364"
         sodipodi:cx="22.363636"
         id="path3299"
         style="opacity:1;fill:#030000;fill-opacity:1;fill-rule:nonzero;stroke:#7ad27e;stroke-width:6.81899977;stroke-linejoin:round;stroke-miterlimit:4;stroke-dasharray:none;stroke-dashoffset:10.92;stroke-opacity:1"
         sodipodi:type="arc" />
      <rect
         transform="matrix(0.7566216,0.653853,-0.653853,0.7566216,0,0)"
         y="-7.5296335"
         x="48.820522"
         height="22"
         width="0.27272728"
         id="rect3301"
         style="opacity:1;fill:#030000;fill-opacity:1;fill-rule:nonzero;stroke:#7ad27e;stroke-width:6.81899977;stroke-linejoin:round;stroke-miterlimit:4;stroke-dasharray:none;stroke-dashoffset:10.92;stroke-opacity:1" />
      <rect
         transform="matrix(-0.678231,0.7348488,0.7348488,0.678231,0,0)"
         y="38.341873"
         x="1.5856277"
         height="22"
         width="0.27272728"
         id="rect3303"
         style="opacity:1;fill:#030000;fill-opacity:1;fill-rule:nonzero;stroke:#7ad27e;stroke-width:6.81899977;stroke-linejoin:round;stroke-miterlimit:4;stroke-dasharray:none;stroke-dashoffset:10.92;stroke-opacity:1" />
    </g>
    <g
       id="g3305"
       transform="matrix(0.3025573,1.5830095e-2,-1.8912006e-2,0.2532525,50.759907,11.447044)"
       style="fill:#030000;fill-opacity:1;stroke:#3d60ec;stroke-opacity:1">
      <path
         transform="matrix(1.2823401,0,0,1.0010962,5.435644,-2.2986373)"
         d="M 23.090909 23.636364 A 0.72727275 0.90909094 0 1 1  21.636363,23.636364 A 0.72727275 0.90909094 0 1 1  23.090909 23.636364 z"
         sodipodi:ry="0.90909094"
         sodipodi:rx="0.72727275"
         sodipodi:cy="23.636364"
         sodipodi:cx="22.363636"
         id="path3307"
         style="opacity:1;fill:#030000;fill-opacity:1;fill-rule:nonzero;stroke:#3d60ec;stroke-width:6.81899977;stroke-linejoin:round;stroke-miterlimit:4;stroke-dasharray:none;stroke-dashoffset:10.92;stroke-opacity:1"
         sodipodi:type="arc" />
      <rect
         transform="matrix(0.7566216,0.653853,-0.653853,0.7566216,0,0)"
         y="-7.5296335"
         x="48.820522"
         height="22"
         width="0.27272728"
         id="rect3309"
         style="opacity:1;fill:#030000;fill-opacity:1;fill-rule:nonzero;stroke:#3d60ec;stroke-width:6.81899977;stroke-linejoin:round;stroke-miterlimit:4;stroke-dasharray:none;stroke-dashoffset:10.92;stroke-opacity:1" />
      <rect
         transform="matrix(-0.678231,0.7348488,0.7348488,0.678231,0,0)"
         y="38.341873"
         x="1.5856277"
         height="22"
         width="0.27272728"
         id="rect3311"
         style="opacity:1;fill:#030000;fill-opacity:1;fill-rule:nonzero;stroke:#3d60ec;stroke-width:6.81899977;stroke-linejoin:round;stroke-miterlimit:4;stroke-dasharray:none;stroke-dashoffset:10.92;stroke-opacity:1" />
    </g>
    <g
       id="g3313"
       transform="matrix(0.3025573,1.5830095e-2,-1.8912006e-2,0.2532525,50.759907,19.490001)"
       style="fill:#030000;fill-opacity:1;stroke:#d27a7a;stroke-opacity:1">
      <path
         transform="matrix(1.2823401,0,0,1.0010962,5.435644,-2.2986373)"
         d="M 23.090909 23.636364 A 0.72727275 0.90909094 0 1 1  21.636363,23.636364 A 0.72727275 0.90909094 0 1 1  23.090909 23.636364 z"
         sodipodi:ry="0.90909094"
         sodipodi:rx="0.72727275"
         sodipodi:cy="23.636364"
         sodipodi:cx="22.363636"
         id="path3315"
         style="opacity:1;fill:#030000;fill-opacity:1;fill-rule:nonzero;stroke:#d27a7a;stroke-width:6.81899977;stroke-linejoin:round;stroke-miterlimit:4;stroke-dasharray:none;stroke-dashoffset:10.92;stroke-opacity:1"
         sodipodi:type="arc" />
      <rect
         transform="matrix(0.7566216,0.653853,-0.653853,0.7566216,0,0)"
         y="-7.5296335"
         x="48.820522"
         height="22"
         width="0.27272728"
         id="rect3317"
         style="opacity:1;fill:#030000;fill-opacity:1;fill-rule:nonzero;stroke:#d27a7a;stroke-width:6.81899977;stroke-linejoin:round;stroke-miterlimit:4;stroke-dasharray:none;stroke-dashoffset:10.92;stroke-opacity:1" />
      <rect
         transform="matrix(-0.678231,0.7348488,0.7348488,0.678231,0,0)"
         y="38.061306"
         x="1.8790452"
         height="22"
         width="0.27272728"
         id="rect3319"
         style="opacity:1;fill:#030000;fill-opacity:1;fill-rule:nonzero;stroke:#d27a7a;stroke-width:6.81899977;stroke-linejoin:round;stroke-miterlimit:4;stroke-dasharray:none;stroke-dashoffset:10.92;stroke-opacity:1" />
    </g>
    <g
       id="g3321"
       transform="matrix(0.3025573,1.5830095e-2,-1.8912006e-2,0.2532525,50.759907,27.532957)"
       style="fill:#030000;fill-opacity:1;stroke:#7ad27e;stroke-opacity:1">
      <path
         transform="matrix(1.2823401,0,0,1.0010962,5.435644,-2.2986373)"
         d="M 23.090909 23.636364 A 0.72727275 0.90909094 0 1 1  21.636363,23.636364 A 0.72727275 0.90909094 0 1 1  23.090909 23.636364 z"
         sodipodi:ry="0.90909094"
         sodipodi:rx="0.72727275"
         sodipodi:cy="23.636364"
         sodipodi:cx="22.363636"
         id="path3323"
         style="opacity:1;fill:#030000;fill-opacity:1;fill-rule:nonzero;stroke:#7ad27e;stroke-width:6.81899977;stroke-linejoin:round;stroke-miterlimit:4;stroke-dasharray:none;stroke-dashoffset:10.92;stroke-opacity:1"
         sodipodi:type="arc" />
      <rect
         transform="matrix(0.7566216,0.653853,-0.653853,0.7566216,0,0)"
         y="-7.5296335"
         x="48.820522"
         height="22"
         width="0.27272728"
         id="rect3325"
         style="opacity:1;fill:#030000;fill-opacity:1;fill-rule:nonzero;stroke:#7ad27e;stroke-width:6.81899977;stroke-linejoin:round;stroke-miterlimit:4;stroke-dasharray:none;stroke-dashoffset:10.92;stroke-opacity:1" />
      <rect
         transform="matrix(-0.678231,0.7348488,0.7348488,0.678231,0,0)"
         y="38.341873"
         x="1.5856277"
         height="22"
         width="0.27272728"
         id="rect3327"
         style="opacity:1;fill:#030000;fill-opacity:1;fill-rule:nonzero;stroke:#7ad27e;stroke-width:6.81899977;stroke-linejoin:round;stroke-miterlimit:4;stroke-dasharray:none;stroke-dashoffset:10.92;stroke-opacity:1" />
    </g>
    <g
       id="g3329"
       transform="matrix(0.3025573,1.5830095e-2,-1.8912006e-2,0.2532525,50.759907,35.575915)"
       style="fill:#030000;fill-opacity:1;stroke:#3d60ec;stroke-opacity:1">
      <path
         transform="matrix(1.2823401,0,0,1.0010962,5.435644,-2.2986373)"
         d="M 23.090909 23.636364 A 0.72727275 0.90909094 0 1 1  21.636363,23.636364 A 0.72727275 0.90909094 0 1 1  23.090909 23.636364 z"
         sodipodi:ry="0.90909094"
         sodipodi:rx="0.72727275"
         sodipodi:cy="23.636364"
         sodipodi:cx="22.363636"
         id="path3331"
         style="opacity:1;fill:#030000;fill-opacity:1;fill-rule:nonzero;stroke:#3d60ec;stroke-width:6.81899977;stroke-linejoin:round;stroke-miterlimit:4;stroke-dasharray:none;stroke-dashoffset:10.92;stroke-opacity:1"
         sodipodi:type="arc" />
      <rect
         transform="matrix(0.7566216,0.653853,-0.653853,0.7566216,0,0)"
         y="-7.5296335"
         x="48.820522"
         height="22"
         width="0.27272728"
         id="rect3333"
         style="opacity:1;fill:#030000;fill-opacity:1;fill-rule:nonzero;stroke:#3d60ec;stroke-width:6.81899977;stroke-linejoin:round;stroke-miterlimit:4;stroke-dasharray:none;stroke-dashoffset:10.92;stroke-opacity:1" />
      <rect
         transform="matrix(-0.678231,0.7348488,0.7348488,0.678231,0,0)"
         y="38.341873"
         x="1.5856277"
         height="22"
         width="0.27272728"
         id="rect3335"
         style="opacity:1;fill:#030000;fill-opacity:1;fill-rule:nonzero;stroke:#3d60ec;stroke-width:6.81899977;stroke-linejoin:round;stroke-miterlimit:4;stroke-dasharray:none;stroke-dashoffset:10.92;stroke-opacity:1" />
    </g>
    <g
       id="g3337"
       transform="matrix(0.3025573,1.5830095e-2,-1.8912006e-2,0.2532525,50.759907,43.618873)"
       style="fill:#030000;fill-opacity:1;stroke:#d27a7a;stroke-opacity:1">
      <path
         transform="matrix(1.2823401,0,0,1.0010962,5.435644,-2.2986373)"
         d="M 23.090909 23.636364 A 0.72727275 0.90909094 0 1 1  21.636363,23.636364 A 0.72727275 0.90909094 0 1 1  23.090909 23.636364 z"
         sodipodi:ry="0.90909094"
         sodipodi:rx="0.72727275"
         sodipodi:cy="23.636364"
         sodipodi:cx="22.363636"
         id="path3339"
         style="opacity:1;fill:#030000;fill-opacity:1;fill-rule:nonzero;stroke:#d27a7a;stroke-width:6.81899977;stroke-linejoin:round;stroke-miterlimit:4;stroke-dasharray:none;stroke-dashoffset:10.92;stroke-opacity:1"
         sodipodi:type="arc" />
      <rect
         transform="matrix(0.7566216,0.653853,-0.653853,0.7566216,0,0)"
         y="-7.5296335"
         x="48.820522"
         height="22"
         width="0.27272728"
         id="rect3341"
         style="opacity:1;fill:#030000;fill-opacity:1;fill-rule:nonzero;stroke:#d27a7a;stroke-width:6.81899977;stroke-linejoin:round;stroke-miterlimit:4;stroke-dasharray:none;stroke-dashoffset:10.92;stroke-opacity:1" />
      <rect
         transform="matrix(-0.678231,0.7348488,0.7348488,0.678231,0,0)"
         y="38.061306"
         x="1.8790452"
         height="22"
         width="0.27272728"
         id="rect3343"
         style="opacity:1;fill:#030000;fill-opacity:1;fill-rule:nonzero;stroke:#d27a7a;stroke-width:6.81899977;stroke-linejoin:round;stroke-miterlimit:4;stroke-dasharray:none;stroke-dashoffset:10.92;stroke-opacity:1" />
    </g>
    <g
       id="g3345"
       transform="matrix(0.3025573,1.5830095e-2,-1.8912006e-2,0.2532525,50.759907,51.661831)"
       style="fill:#030000;fill-opacity:1;stroke:#7ad27e;stroke-opacity:1">
      <path
         transform="matrix(1.2823401,0,0,1.0010962,5.435644,-2.2986373)"
         d="M 23.090909 23.636364 A 0.72727275 0.90909094 0 1 1  21.636363,23.636364 A 0.72727275 0.90909094 0 1 1  23.090909 23.636364 z"
         sodipodi:ry="0.90909094"
         sodipodi:rx="0.72727275"
         sodipodi:cy="23.636364"
         sodipodi:cx="22.363636"
         id="path3347"
         style="opacity:1;fill:#030000;fill-opacity:1;fill-rule:nonzero;stroke:#7ad27e;stroke-width:6.81899977;stroke-linejoin:round;stroke-miterlimit:4;stroke-dasharray:none;stroke-dashoffset:10.92;stroke-opacity:1"
         sodipodi:type="arc" />
      <rect
         transform="matrix(0.7566216,0.653853,-0.653853,0.7566216,0,0)"
         y="-7.5296335"
         x="48.820522"
         height="22"
         width="0.27272728"
         id="rect3349"
         style="opacity:1;fill:#030000;fill-opacity:1;fill-rule:nonzero;stroke:#7ad27e;stroke-width:6.81899977;stroke-linejoin:round;stroke-miterlimit:4;stroke-dasharray:none;stroke-dashoffset:10.92;stroke-opacity:1" />
      <rect
         transform="matrix(-0.678231,0.7348488,0.7348488,0.678231,0,0)"
         y="38.341873"
         x="1.5856277"
         height="22"
         width="0.27272728"
         id="rect3351"
         style="opacity:1;fill:#030000;fill-opacity:1;fill-rule:nonzero;stroke:#7ad27e;stroke-width:6.81899977;stroke-linejoin:round;stroke-miterlimit:4;stroke-dasharray:none;stroke-dashoffset:10.92;stroke-opacity:1" />
    </g>
    <g
       id="g3353"
       transform="matrix(-1.582339e-2,0.3026855,-0.2531451,-1.8920019e-2,60.189282,-6.5585315)"
       style="fill:#030000;fill-opacity:1;stroke:#d27a7a;stroke-opacity:1">
      <path
         transform="matrix(1.2823401,0,0,1.0010962,5.435644,-2.2986373)"
         d="M 23.090909 23.636364 A 0.72727275 0.90909094 0 1 1  21.636363,23.636364 A 0.72727275 0.90909094 0 1 1  23.090909 23.636364 z"
         sodipodi:ry="0.90909094"
         sodipodi:rx="0.72727275"
         sodipodi:cy="23.636364"
         sodipodi:cx="22.363636"
         id="path3355"
         style="opacity:1;fill:#030000;fill-opacity:1;fill-rule:nonzero;stroke:#d27a7a;stroke-width:6.81899977;stroke-linejoin:round;stroke-miterlimit:4;stroke-dasharray:none;stroke-dashoffset:10.92;stroke-opacity:1"
         sodipodi:type="arc" />
      <rect
         transform="matrix(0.7566216,0.653853,-0.653853,0.7566216,0,0)"
         y="-7.5296335"
         x="48.820522"
         height="22"
         width="0.27272728"
         id="rect3357"
         style="opacity:1;fill:#030000;fill-opacity:1;fill-rule:nonzero;stroke:#d27a7a;stroke-width:6.81899977;stroke-linejoin:round;stroke-miterlimit:4;stroke-dasharray:none;stroke-dashoffset:10.92;stroke-opacity:1" />
      <rect
         transform="matrix(-0.678231,0.7348488,0.7348488,0.678231,0,0)"
         y="38.061306"
         x="1.8790452"
         height="22"
         width="0.27272728"
         id="rect3359"
         style="opacity:1;fill:#030000;fill-opacity:1;fill-rule:nonzero;stroke:#d27a7a;stroke-width:6.81899977;stroke-linejoin:round;stroke-miterlimit:4;stroke-dasharray:none;stroke-dashoffset:10.92;stroke-opacity:1" />
    </g>
    <g
       id="g3361"
       transform="matrix(-1.582339e-2,0.3026855,-0.2531451,-1.8920019e-2,52.32666,-6.5585315)"
       style="fill:#030000;fill-opacity:1;stroke:#7ad27e;stroke-opacity:1">
      <path
         transform="matrix(1.2823401,0,0,1.0010962,5.435644,-2.2986373)"
         d="M 23.090909 23.636364 A 0.72727275 0.90909094 0 1 1  21.636363,23.636364 A 0.72727275 0.90909094 0 1 1  23.090909 23.636364 z"
         sodipodi:ry="0.90909094"
         sodipodi:rx="0.72727275"
         sodipodi:cy="23.636364"
         sodipodi:cx="22.363636"
         id="path3363"
         style="opacity:1;fill:#030000;fill-opacity:1;fill-rule:nonzero;stroke:#7ad27e;stroke-width:6.81899977;stroke-linejoin:round;stroke-miterlimit:4;stroke-dasharray:none;stroke-dashoffset:10.92;stroke-opacity:1"
         sodipodi:type="arc" />
      <rect
         transform="matrix(0.7566216,0.653853,-0.653853,0.7566216,0,0)"
         y="-7.5296335"
         x="48.820522"
         height="22"
         width="0.27272728"
         id="rect3365"
         style="opacity:1;fill:#030000;fill-opacity:1;fill-rule:nonzero;stroke:#7ad27e;stroke-width:6.81899977;stroke-linejoin:round;stroke-miterlimit:4;stroke-dasharray:none;stroke-dashoffset:10.92;stroke-opacity:1" />
      <rect
         transform="matrix(-0.678231,0.7348488,0.7348488,0.678231,0,0)"
         y="38.341873"
         x="1.5856277"
         height="22"
         width="0.27272728"
         id="rect3367"
         style="opacity:1;fill:#030000;fill-opacity:1;fill-rule:nonzero;stroke:#7ad27e;stroke-width:6.81899977;stroke-linejoin:round;stroke-miterlimit:4;stroke-dasharray:none;stroke-dashoffset:10.92;stroke-opacity:1" />
    </g>
    <g
       id="g3369"
       transform="matrix(-1.582339e-2,0.3026855,-0.2531451,-1.8920019e-2,44.464033,-6.5585315)"
       style="fill:#030000;fill-opacity:1;stroke:#3d60ec;stroke-opacity:1">
      <path
         transform="matrix(1.2823401,0,0,1.0010962,5.435644,-2.2986373)"
         d="M 23.090909 23.636364 A 0.72727275 0.90909094 0 1 1  21.636363,23.636364 A 0.72727275 0.90909094 0 1 1  23.090909 23.636364 z"
         sodipodi:ry="0.90909094"
         sodipodi:rx="0.72727275"
         sodipodi:cy="23.636364"
         sodipodi:cx="22.363636"
         id="path3371"
         style="opacity:1;fill:#030000;fill-opacity:1;fill-rule:nonzero;stroke:#3d60ec;stroke-width:6.81899977;stroke-linejoin:round;stroke-miterlimit:4;stroke-dasharray:none;stroke-dashoffset:10.92;stroke-opacity:1"
         sodipodi:type="arc" />
      <rect
         transform="matrix(0.7566216,0.653853,-0.653853,0.7566216,0,0)"
         y="-7.5296335"
         x="48.820522"
         height="22"
         width="0.27272728"
         id="rect3373"
         style="opacity:1;fill:#030000;fill-opacity:1;fill-rule:nonzero;stroke:#3d60ec;stroke-width:6.81899977;stroke-linejoin:round;stroke-miterlimit:4;stroke-dasharray:none;stroke-dashoffset:10.92;stroke-opacity:1" />
      <rect
         transform="matrix(-0.678231,0.7348488,0.7348488,0.678231,0,0)"
         y="38.341873"
         x="1.5856277"
         height="22"
         width="0.27272728"
         id="rect3375"
         style="opacity:1;fill:#030000;fill-opacity:1;fill-rule:nonzero;stroke:#3d60ec;stroke-width:6.81899977;stroke-linejoin:round;stroke-miterlimit:4;stroke-dasharray:none;stroke-dashoffset:10.92;stroke-opacity:1" />
    </g>
    <g
       id="g3377"
       transform="matrix(-1.582339e-2,0.3026855,-0.2531451,-1.8920019e-2,36.601411,-6.5585315)"
       style="fill:#030000;fill-opacity:1;stroke:#d27a7a;stroke-opacity:1">
      <path
         transform="matrix(1.2823401,0,0,1.0010962,5.435644,-2.2986373)"
         d="M 23.090909 23.636364 A 0.72727275 0.90909094 0 1 1  21.636363,23.636364 A 0.72727275 0.90909094 0 1 1  23.090909 23.636364 z"
         sodipodi:ry="0.90909094"
         sodipodi:rx="0.72727275"
         sodipodi:cy="23.636364"
         sodipodi:cx="22.363636"
         id="path3379"
         style="opacity:1;fill:#030000;fill-opacity:1;fill-rule:nonzero;stroke:#d27a7a;stroke-width:6.81899977;stroke-linejoin:round;stroke-miterlimit:4;stroke-dasharray:none;stroke-dashoffset:10.92;stroke-opacity:1"
         sodipodi:type="arc" />
      <rect
         transform="matrix(0.7566216,0.653853,-0.653853,0.7566216,0,0)"
         y="-7.5296335"
         x="48.820522"
         height="22"
         width="0.27272728"
         id="rect3381"
         style="opacity:1;fill:#030000;fill-opacity:1;fill-rule:nonzero;stroke:#d27a7a;stroke-width:6.81899977;stroke-linejoin:round;stroke-miterlimit:4;stroke-dasharray:none;stroke-dashoffset:10.92;stroke-opacity:1" />
      <rect
         transform="matrix(-0.678231,0.7348488,0.7348488,0.678231,0,0)"
         y="38.061306"
         x="1.8790452"
         height="22"
         width="0.27272728"
         id="rect3383"
         style="opacity:1;fill:#030000;fill-opacity:1;fill-rule:nonzero;stroke:#d27a7a;stroke-width:6.81899977;stroke-linejoin:round;stroke-miterlimit:4;stroke-dasharray:none;stroke-dashoffset:10.92;stroke-opacity:1" />
    </g>
    <g
       id="g3385"
       transform="matrix(-1.582339e-2,0.3026855,-0.2531451,-1.8920019e-2,28.738785,-6.5585315)"
       style="fill:#030000;fill-opacity:1;stroke:#7ad27e;stroke-opacity:1">
      <path
         transform="matrix(1.2823401,0,0,1.0010962,5.435644,-2.2986373)"
         d="M 23.090909 23.636364 A 0.72727275 0.90909094 0 1 1  21.636363,23.636364 A 0.72727275 0.90909094 0 1 1  23.090909 23.636364 z"
         sodipodi:ry="0.90909094"
         sodipodi:rx="0.72727275"
         sodipodi:cy="23.636364"
         sodipodi:cx="22.363636"
         id="path3387"
         style="opacity:1;fill:#030000;fill-opacity:1;fill-rule:nonzero;stroke:#7ad27e;stroke-width:6.81899977;stroke-linejoin:round;stroke-miterlimit:4;stroke-dasharray:none;stroke-dashoffset:10.92;stroke-opacity:1"
         sodipodi:type="arc" />
      <rect
         transform="matrix(0.7566216,0.653853,-0.653853,0.7566216,0,0)"
         y="-7.5296335"
         x="48.820522"
         height="22"
         width="0.27272728"
         id="rect3389"
         style="opacity:1;fill:#030000;fill-opacity:1;fill-rule:nonzero;stroke:#7ad27e;stroke-width:6.81899977;stroke-linejoin:round;stroke-miterlimit:4;stroke-dasharray:none;stroke-dashoffset:10.92;stroke-opacity:1" />
      <rect
         transform="matrix(-0.678231,0.7348488,0.7348488,0.678231,0,0)"
         y="38.341873"
         x="1.5856277"
         height="22"
         width="0.27272728"
         id="rect3391"
         style="opacity:1;fill:#030000;fill-opacity:1;fill-rule:nonzero;stroke:#7ad27e;stroke-width:6.81899977;stroke-linejoin:round;stroke-miterlimit:4;stroke-dasharray:none;stroke-dashoffset:10.92;stroke-opacity:1" />
    </g>
    <g
       id="g3393"
       transform="matrix(-1.582339e-2,0.3026855,-0.2531451,-1.8920019e-2,20.876161,-6.5585315)"
       style="fill:#030000;fill-opacity:1;stroke:#3d60ec;stroke-opacity:1">
      <path
         transform="matrix(1.2823401,0,0,1.0010962,5.435644,-2.2986373)"
         d="M 23.090909 23.636364 A 0.72727275 0.90909094 0 1 1  21.636363,23.636364 A 0.72727275 0.90909094 0 1 1  23.090909 23.636364 z"
         sodipodi:ry="0.90909094"
         sodipodi:rx="0.72727275"
         sodipodi:cy="23.636364"
         sodipodi:cx="22.363636"
         id="path3395"
         style="opacity:1;fill:#030000;fill-opacity:1;fill-rule:nonzero;stroke:#3d60ec;stroke-width:6.81899977;stroke-linejoin:round;stroke-miterlimit:4;stroke-dasharray:none;stroke-dashoffset:10.92;stroke-opacity:1"
         sodipodi:type="arc" />
      <rect
         transform="matrix(0.7566216,0.653853,-0.653853,0.7566216,0,0)"
         y="-7.5296335"
         x="48.820522"
         height="22"
         width="0.27272728"
         id="rect3397"
         style="opacity:1;fill:#030000;fill-opacity:1;fill-rule:nonzero;stroke:#3d60ec;stroke-width:6.81899977;stroke-linejoin:round;stroke-miterlimit:4;stroke-dasharray:none;stroke-dashoffset:10.92;stroke-opacity:1" />
      <rect
         transform="matrix(-0.678231,0.7348488,0.7348488,0.678231,0,0)"
         y="38.341873"
         x="1.5856277"
         height="22"
         width="0.27272728"
         id="rect3399"
         style="opacity:1;fill:#030000;fill-opacity:1;fill-rule:nonzero;stroke:#3d60ec;stroke-width:6.81899977;stroke-linejoin:round;stroke-miterlimit:4;stroke-dasharray:none;stroke-dashoffset:10.92;stroke-opacity:1" />
    </g>
    <g
       id="g3401"
       transform="matrix(1.582339e-2,0.3026855,0.2531451,-1.8920019e-2,3.731668,50.820284)"
       style="fill:#030000;fill-opacity:1;stroke:#d27a7a;stroke-opacity:1">
      <path
         transform="matrix(1.2823401,0,0,1.0010962,5.435644,-2.2986373)"
         d="M 23.090909 23.636364 A 0.72727275 0.90909094 0 1 1  21.636363,23.636364 A 0.72727275 0.90909094 0 1 1  23.090909 23.636364 z"
         sodipodi:ry="0.90909094"
         sodipodi:rx="0.72727275"
         sodipodi:cy="23.636364"
         sodipodi:cx="22.363636"
         id="path3403"
         style="opacity:1;fill:#030000;fill-opacity:1;fill-rule:nonzero;stroke:#d27a7a;stroke-width:6.81899977;stroke-linejoin:round;stroke-miterlimit:4;stroke-dasharray:none;stroke-dashoffset:10.92;stroke-opacity:1"
         sodipodi:type="arc" />
      <rect
         transform="matrix(0.7566216,0.653853,-0.653853,0.7566216,0,0)"
         y="-7.5296335"
         x="48.820522"
         height="22"
         width="0.27272728"
         id="rect3405"
         style="opacity:1;fill:#030000;fill-opacity:1;fill-rule:nonzero;stroke:#d27a7a;stroke-width:6.81899977;stroke-linejoin:round;stroke-miterlimit:4;stroke-dasharray:none;stroke-dashoffset:10.92;stroke-opacity:1" />
      <rect
         transform="matrix(-0.678231,0.7348488,0.7348488,0.678231,0,0)"
         y="38.061306"
         x="1.8790452"
         height="22"
         width="0.27272728"
         id="rect3407"
         style="opacity:1;fill:#030000;fill-opacity:1;fill-rule:nonzero;stroke:#d27a7a;stroke-width:6.81899977;stroke-linejoin:round;stroke-miterlimit:4;stroke-dasharray:none;stroke-dashoffset:10.92;stroke-opacity:1" />
    </g>
    <g
       id="g3409"
       transform="matrix(1.582339e-2,0.3026855,0.2531451,-1.8920019e-2,11.594291,50.754353)"
       style="fill:#030000;fill-opacity:1;stroke:#7ad27e;stroke-opacity:1">
      <path
         transform="matrix(1.2823401,0,0,1.0010962,5.435644,-2.2986373)"
         d="M 23.090909 23.636364 A 0.72727275 0.90909094 0 1 1  21.636363,23.636364 A 0.72727275 0.90909094 0 1 1  23.090909 23.636364 z"
         sodipodi:ry="0.90909094"
         sodipodi:rx="0.72727275"
         sodipodi:cy="23.636364"
         sodipodi:cx="22.363636"
         id="path3411"
         style="opacity:1;fill:#030000;fill-opacity:1;fill-rule:nonzero;stroke:#7ad27e;stroke-width:6.81899977;stroke-linejoin:round;stroke-miterlimit:4;stroke-dasharray:none;stroke-dashoffset:10.92;stroke-opacity:1"
         sodipodi:type="arc" />
      <rect
         transform="matrix(0.7566216,0.653853,-0.653853,0.7566216,0,0)"
         y="-7.5296335"
         x="48.820522"
         height="22"
         width="0.27272728"
         id="rect3413"
         style="opacity:1;fill:#030000;fill-opacity:1;fill-rule:nonzero;stroke:#7ad27e;stroke-width:6.81899977;stroke-linejoin:round;stroke-miterlimit:4;stroke-dasharray:none;stroke-dashoffset:10.92;stroke-opacity:1" />
      <rect
         transform="matrix(-0.678231,0.7348488,0.7348488,0.678231,0,0)"
         y="38.341873"
         x="1.5856277"
         height="22"
         width="0.27272728"
         id="rect3415"
         style="opacity:1;fill:#030000;fill-opacity:1;fill-rule:nonzero;stroke:#7ad27e;stroke-width:6.81899977;stroke-linejoin:round;stroke-miterlimit:4;stroke-dasharray:none;stroke-dashoffset:10.92;stroke-opacity:1" />
    </g>
    <g
       id="g3417"
       transform="matrix(1.582339e-2,0.3026855,0.2531451,-1.8920019e-2,19.456916,50.754353)"
       style="fill:#030000;fill-opacity:1;stroke:#3d60ec;stroke-opacity:1">
      <path
         transform="matrix(1.2823401,0,0,1.0010962,5.435644,-2.2986373)"
         d="M 23.090909 23.636364 A 0.72727275 0.90909094 0 1 1  21.636363,23.636364 A 0.72727275 0.90909094 0 1 1  23.090909 23.636364 z"
         sodipodi:ry="0.90909094"
         sodipodi:rx="0.72727275"
         sodipodi:cy="23.636364"
         sodipodi:cx="22.363636"
         id="path3419"
         style="opacity:1;fill:#030000;fill-opacity:1;fill-rule:nonzero;stroke:#3d60ec;stroke-width:6.81899977;stroke-linejoin:round;stroke-miterlimit:4;stroke-dasharray:none;stroke-dashoffset:10.92;stroke-opacity:1"
         sodipodi:type="arc" />
      <rect
         transform="matrix(0.7566216,0.653853,-0.653853,0.7566216,0,0)"
         y="-7.5296335"
         x="48.820522"
         height="22"
         width="0.27272728"
         id="rect3421"
         style="opacity:1;fill:#030000;fill-opacity:1;fill-rule:nonzero;stroke:#3d60ec;stroke-width:6.81899977;stroke-linejoin:round;stroke-miterlimit:4;stroke-dasharray:none;stroke-dashoffset:10.92;stroke-opacity:1" />
      <rect
         transform="matrix(-0.678231,0.7348488,0.7348488,0.678231,0,0)"
         y="38.341873"
         x="1.5856277"
         height="22"
         width="0.27272728"
         id="rect3423"
         style="opacity:1;fill:#030000;fill-opacity:1;fill-rule:nonzero;stroke:#3d60ec;stroke-width:6.81899977;stroke-linejoin:round;stroke-miterlimit:4;stroke-dasharray:none;stroke-dashoffset:10.92;stroke-opacity:1" />
    </g>
    <g
       id="g3425"
       transform="matrix(1.582339e-2,0.3026855,0.2531451,-1.8920019e-2,27.319539,50.754353)"
       style="fill:#030000;fill-opacity:1;stroke:#d27a7a;stroke-opacity:1">
      <path
         transform="matrix(1.2823401,0,0,1.0010962,5.435644,-2.2986373)"
         d="M 23.090909 23.636364 A 0.72727275 0.90909094 0 1 1  21.636363,23.636364 A 0.72727275 0.90909094 0 1 1  23.090909 23.636364 z"
         sodipodi:ry="0.90909094"
         sodipodi:rx="0.72727275"
         sodipodi:cy="23.636364"
         sodipodi:cx="22.363636"
         id="path3427"
         style="opacity:1;fill:#030000;fill-opacity:1;fill-rule:nonzero;stroke:#d27a7a;stroke-width:6.81899977;stroke-linejoin:round;stroke-miterlimit:4;stroke-dasharray:none;stroke-dashoffset:10.92;stroke-opacity:1"
         sodipodi:type="arc" />
      <rect
         transform="matrix(0.7566216,0.653853,-0.653853,0.7566216,0,0)"
         y="-7.5296335"
         x="48.820522"
         height="22"
         width="0.27272728"
         id="rect3429"
         style="opacity:1;fill:#030000;fill-opacity:1;fill-rule:nonzero;stroke:#d27a7a;stroke-width:6.81899977;stroke-linejoin:round;stroke-miterlimit:4;stroke-dasharray:none;stroke-dashoffset:10.92;stroke-opacity:1" />
      <rect
         transform="matrix(-0.678231,0.7348488,0.7348488,0.678231,0,0)"
         y="38.061306"
         x="1.8790452"
         height="22"
         width="0.27272728"
         id="rect3431"
         style="opacity:1;fill:#030000;fill-opacity:1;fill-rule:nonzero;stroke:#d27a7a;stroke-width:6.81899977;stroke-linejoin:round;stroke-miterlimit:4;stroke-dasharray:none;stroke-dashoffset:10.92;stroke-opacity:1" />
    </g>
    <g
       id="g3433"
       transform="matrix(1.582339e-2,0.3026855,0.2531451,-1.8920019e-2,35.182166,50.754353)"
       style="fill:#030000;fill-opacity:1;stroke:#7ad27e;stroke-opacity:1">
      <path
         transform="matrix(1.2823401,0,0,1.0010962,5.435644,-2.2986373)"
         d="M 23.090909 23.636364 A 0.72727275 0.90909094 0 1 1  21.636363,23.636364 A 0.72727275 0.90909094 0 1 1  23.090909 23.636364 z"
         sodipodi:ry="0.90909094"
         sodipodi:rx="0.72727275"
         sodipodi:cy="23.636364"
         sodipodi:cx="22.363636"
         id="path3435"
         style="opacity:1;fill:#030000;fill-opacity:1;fill-rule:nonzero;stroke:#7ad27e;stroke-width:6.81899977;stroke-linejoin:round;stroke-miterlimit:4;stroke-dasharray:none;stroke-dashoffset:10.92;stroke-opacity:1"
         sodipodi:type="arc" />
      <rect
         transform="matrix(0.7566216,0.653853,-0.653853,0.7566216,0,0)"
         y="-7.5296335"
         x="48.820522"
         height="22"
         width="0.27272728"
         id="rect3437"
         style="opacity:1;fill:#030000;fill-opacity:1;fill-rule:nonzero;stroke:#7ad27e;stroke-width:6.81899977;stroke-linejoin:round;stroke-miterlimit:4;stroke-dasharray:none;stroke-dashoffset:10.92;stroke-opacity:1" />
      <rect
         transform="matrix(-0.678231,0.7348488,0.7348488,0.678231,0,0)"
         y="38.341873"
         x="1.5856277"
         height="22"
         width="0.27272728"
         id="rect3439"
         style="opacity:1;fill:#030000;fill-opacity:1;fill-rule:nonzero;stroke:#7ad27e;stroke-width:6.81899977;stroke-linejoin:round;stroke-miterlimit:4;stroke-dasharray:none;stroke-dashoffset:10.92;stroke-opacity:1" />
    </g>
    <g
       id="g3441"
       transform="matrix(1.582339e-2,0.3026855,0.2531451,-1.8920019e-2,43.04479,50.754353)"
       style="fill:#030000;fill-opacity:1;stroke:#3d60ec;stroke-opacity:1">
      <path
         transform="matrix(1.2823401,0,0,1.0010962,5.435644,-2.2986373)"
         d="M 23.090909 23.636364 A 0.72727275 0.90909094 0 1 1  21.636363,23.636364 A 0.72727275 0.90909094 0 1 1  23.090909 23.636364 z"
         sodipodi:ry="0.90909094"
         sodipodi:rx="0.72727275"
         sodipodi:cy="23.636364"
         sodipodi:cx="22.363636"
         id="path3443"
         style="opacity:1;fill:#030000;fill-opacity:1;fill-rule:nonzero;stroke:#3d60ec;stroke-width:6.81899977;stroke-linejoin:round;stroke-miterlimit:4;stroke-dasharray:none;stroke-dashoffset:10.92;stroke-opacity:1"
         sodipodi:type="arc" />
      <rect
         transform="matrix(0.7566216,0.653853,-0.653853,0.7566216,0,0)"
         y="-7.5296335"
         x="48.820522"
         height="22"
         width="0.27272728"
         id="rect3445"
         style="opacity:1;fill:#030000;fill-opacity:1;fill-rule:nonzero;stroke:#3d60ec;stroke-width:6.81899977;stroke-linejoin:round;stroke-miterlimit:4;stroke-dasharray:none;stroke-dashoffset:10.92;stroke-opacity:1" />
      <rect
         transform="matrix(-0.678231,0.7348488,0.7348488,0.678231,0,0)"
         y="38.341873"
         x="1.5856277"
         height="22"
         width="0.27272728"
         id="rect3447"
         style="opacity:1;fill:#030000;fill-opacity:1;fill-rule:nonzero;stroke:#3d60ec;stroke-width:6.81899977;stroke-linejoin:round;stroke-miterlimit:4;stroke-dasharray:none;stroke-dashoffset:10.92;stroke-opacity:1" />
    </g>
  </g>
</svg>
